<svg width="30" height="30" viewBox="0 0 30 30" fill="none" xmlns="http://www.w3.org/2000/svg">
<g clip-path="url(#clip0_434_841)">
<path d="M15 30C23.2843 30 30 23.2843 30 15C30 6.71573 23.2843 0 15 0C6.71573 0 0 6.71573 0 15C0 23.2843 6.71573 30 15 30Z" fill="#303136"/>
<mask id="mask0_434_841" style="mask-type:luminance" maskUnits="userSpaceOnUse" x="6" y="6" width="18" height="18">
<path d="M24 6H6V24H24V6Z" fill="white"/>
</mask>
<g mask="url(#mask0_434_841)">
<path d="M12.75 17.25H21M12.75 14.25H15.75M12.75 11.25H15.75M8.625 21.75C9.12228 21.75 9.59919 21.5525 9.95083 21.2008C10.3025 20.8492 10.5 20.3723 10.5 19.875V8.25H23.25V19.875C23.25 20.3723 23.0525 20.8492 22.7008 21.2008C22.3492 21.5525 21.8723 21.75 21.375 21.75H8.625ZM8.625 21.75C8.12772 21.75 7.65081 21.5525 7.29917 21.2008C6.94754 20.8492 6.75 20.3723 6.75 19.875V11.25H10.5188M18 11.25H20.25V14.25H18V11.25Z" stroke="#8DCBED" stroke-width="2"/>
</g>
</g>
<defs>
<clipPath id="clip0_434_841">
<rect width="30" height="30" fill="white"/>
</clipPath>
</defs>
</svg>
