<svg width="30" height="30" viewBox="0 0 30 30" fill="none" xmlns="http://www.w3.org/2000/svg">
<circle cx="15" cy="15" r="15" fill="#F3F6F6"/>
<g clip-path="url(#clip0_169_497)">
<path d="M12.75 17.25H21M12.75 14.25H15.75M12.75 11.25H15.75M10.5 19.875C10.5 20.3723 10.3025 20.8492 9.95083 21.2008C9.59919 21.5525 9.12228 21.75 8.625 21.75C8.12772 21.75 7.65081 21.5525 7.29917 21.2008C6.94754 20.8492 6.75 20.3723 6.75 19.875V11.25H10.5188M10.5 19.875V8.25H23.25V19.875C23.25 20.3723 23.0525 20.8492 22.7008 21.2008C22.3492 21.5525 21.8723 21.75 21.375 21.75H8.625M18 11.25H20.25V14.25H18V11.25Z" stroke="#2FA0DF" stroke-width="2"/>
</g>
<defs>
<clipPath id="clip0_169_497">
<rect width="18" height="18" fill="white" transform="translate(6 6)"/>
</clipPath>
</defs>
</svg>
