<svg width="26" height="23" viewBox="0 0 26 23" fill="none" xmlns="http://www.w3.org/2000/svg">
<path d="M20.333 7H10.333C10.0678 7 9.81344 6.89464 9.6259 6.70711C9.43836 6.51957 9.33301 6.26522 9.33301 6C9.33301 5.73478 9.43836 5.48043 9.6259 5.29289C9.81344 5.10536 10.0678 5 10.333 5H20.333C20.5982 5 20.8526 5.10536 21.0401 5.29289C21.2277 5.48043 21.333 5.73478 21.333 6C21.333 6.26522 21.2277 6.51957 21.0401 6.70711C20.8526 6.89464 20.5982 7 20.333 7ZM20.333 11H10.333C10.0678 11 9.81344 10.8946 9.6259 10.7071C9.43836 10.5196 9.33301 10.2652 9.33301 10C9.33301 9.73478 9.43836 9.48043 9.6259 9.29289C9.81344 9.10536 10.0678 9 10.333 9H20.333C20.5982 9 20.8526 9.10536 21.0401 9.29289C21.2277 9.48043 21.333 9.73478 21.333 10C21.333 10.2652 21.2277 10.5196 21.0401 10.7071C20.8526 10.8946 20.5982 11 20.333 11Z" fill="#006BB8"/>
<path d="M22.333 0H8.33301C7.5376 0.000794215 6.775 0.31712 6.21256 0.879557C5.65013 1.44199 5.3338 2.20459 5.33301 3V13C5.3338 13.7954 5.65013 14.558 6.21256 15.1204C6.775 15.6829 7.5376 15.9992 8.33301 16H19.919L23.626 19.707C23.7659 19.8468 23.944 19.942 24.138 19.9806C24.3319 20.0192 24.533 19.9993 24.7157 19.9237C24.8984 19.848 25.0545 19.7199 25.1644 19.5555C25.2743 19.391 25.333 19.1978 25.333 19V3C25.3322 2.20459 25.0159 1.44199 24.4535 0.879557C23.891 0.31712 23.1284 0.000794215 22.333 0V0ZM20.333 11H10.333C10.0678 11 9.81344 10.8946 9.6259 10.7071C9.43836 10.5196 9.33301 10.2652 9.33301 10C9.33301 9.73478 9.43836 9.48043 9.6259 9.29289C9.81344 9.10536 10.0678 9 10.333 9H20.333C20.5982 9 20.8526 9.10536 21.0401 9.29289C21.2277 9.48043 21.333 9.73478 21.333 10C21.333 10.2652 21.2277 10.5196 21.0401 10.7071C20.8526 10.8946 20.5982 11 20.333 11ZM20.333 7H10.333C10.0678 7 9.81344 6.89464 9.6259 6.70711C9.43836 6.51957 9.33301 6.26522 9.33301 6C9.33301 5.73478 9.43836 5.48043 9.6259 5.29289C9.81344 5.10536 10.0678 5 10.333 5H20.333C20.5982 5 20.8526 5.10536 21.0401 5.29289C21.2277 5.48043 21.333 5.73478 21.333 6C21.333 6.26522 21.2277 6.51957 21.0401 6.70711C20.8526 6.89464 20.5982 7 20.333 7Z" fill="#2FA0DF"/>
<path d="M4.16634 11.4997H12.4997C12.7207 11.4997 12.9326 11.4119 13.0889 11.2556C13.2452 11.0993 13.333 10.8874 13.333 10.6663C13.333 10.4453 13.2452 10.2334 13.0889 10.0771C12.9326 9.92081 12.7207 9.83301 12.4997 9.83301H4.16634C3.94533 9.83301 3.73337 9.92081 3.57709 10.0771C3.4208 10.2334 3.33301 10.4453 3.33301 10.6663C3.33301 10.8874 3.4208 11.0993 3.57709 11.2556C3.73337 11.4119 3.94533 11.4997 4.16634 11.4997ZM4.16634 14.833H12.4997C12.7207 14.833 12.9326 14.7452 13.0889 14.5889C13.2452 14.4326 13.333 14.2207 13.333 13.9997C13.333 13.7787 13.2452 13.5667 13.0889 13.4104C12.9326 13.2541 12.7207 13.1663 12.4997 13.1663H4.16634C3.94533 13.1663 3.73337 13.2541 3.57709 13.4104C3.4208 13.5667 3.33301 13.7787 3.33301 13.9997C3.33301 14.2207 3.4208 14.4326 3.57709 14.5889C3.73337 14.7452 3.94533 14.833 4.16634 14.833Z" fill="#006BB8"/>
<path d="M2.49984 5.66699H14.1665C14.8293 5.66765 15.4648 5.93126 15.9335 6.39996C16.4022 6.86865 16.6658 7.50415 16.6665 8.16699V16.5003C16.6658 17.1632 16.4022 17.7987 15.9335 18.2674C15.4648 18.7361 14.8293 18.9997 14.1665 19.0003H4.5115L1.42234 22.0895C1.3058 22.206 1.15733 22.2853 0.995698 22.3175C0.83407 22.3496 0.666542 22.3331 0.514292 22.2701C0.362043 22.207 0.231906 22.1002 0.140336 21.9632C0.0487659 21.8262 -0.000127176 21.6651 -0.000162363 21.5003V8.16699C0.000499483 7.50415 0.264104 6.86865 0.732801 6.39996C1.2015 5.93126 1.837 5.66765 2.49984 5.66699V5.66699ZM4.1665 14.8337H12.4998C12.7209 14.8337 12.9328 14.7459 13.0891 14.5896C13.2454 14.4333 13.3332 14.2213 13.3332 14.0003C13.3332 13.7793 13.2454 13.5674 13.0891 13.4111C12.9328 13.2548 12.7209 13.167 12.4998 13.167H4.1665C3.94549 13.167 3.73353 13.2548 3.57725 13.4111C3.42097 13.5674 3.33317 13.7793 3.33317 14.0003C3.33317 14.2213 3.42097 14.4333 3.57725 14.5896C3.73353 14.7459 3.94549 14.8337 4.1665 14.8337ZM4.1665 11.5003H12.4998C12.7209 11.5003 12.9328 11.4125 13.0891 11.2562C13.2454 11.1 13.3332 10.888 13.3332 10.667C13.3332 10.446 13.2454 10.234 13.0891 10.0777C12.9328 9.92146 12.7209 9.83366 12.4998 9.83366H4.1665C3.94549 9.83366 3.73353 9.92146 3.57725 10.0777C3.42097 10.234 3.33317 10.446 3.33317 10.667C3.33317 10.888 3.42097 11.1 3.57725 11.2562C3.73353 11.4125 3.94549 11.5003 4.1665 11.5003Z" fill="#2FA0DF"/>
</svg>
