<svg width="30" height="30" viewBox="0 0 30 30" fill="none" xmlns="http://www.w3.org/2000/svg">
<circle cx="15" cy="15" r="15" fill="#303136"/>
<path d="M15 5C13.0222 5 11.0888 5.58649 9.4443 6.6853C7.79981 7.78412 6.51809 9.3459 5.76121 11.1732C5.00433 13.0004 4.8063 15.0111 5.19215 16.9509C5.578 18.8907 6.53041 20.6725 7.92894 22.0711C9.32746 23.4696 11.1093 24.422 13.0491 24.8079C14.9889 25.1937 16.9996 24.9957 18.8268 24.2388C20.6541 23.4819 22.2159 22.2002 23.3147 20.5557C24.4135 18.9112 25 16.9778 25 15C25 13.6868 24.7413 12.3864 24.2388 11.1732C23.7363 9.95991 22.9997 8.85752 22.0711 7.92893C21.1425 7.00035 20.0401 6.26375 18.8268 5.7612C17.6136 5.25866 16.3132 5 15 5ZM15 23C13.4178 23 11.871 22.5308 10.5554 21.6518C9.23985 20.7727 8.21447 19.5233 7.60897 18.0615C7.00347 16.5997 6.84504 14.9911 7.15372 13.4393C7.4624 11.8874 8.22433 10.462 9.34315 9.34315C10.462 8.22433 11.8874 7.4624 13.4393 7.15372C14.9911 6.84504 16.5997 7.00346 18.0615 7.60896C19.5233 8.21447 20.7727 9.23984 21.6518 10.5554C22.5308 11.871 23 13.4177 23 15C23 17.1217 22.1572 19.1566 20.6569 20.6569C19.1566 22.1571 17.1217 23 15 23Z" fill="#8DCBED"/>
<path d="M15 12C15.5523 12 16 11.5523 16 11C16 10.4477 15.5523 10 15 10C14.4477 10 14 10.4477 14 11C14 11.5523 14.4477 12 15 12Z" fill="#8DCBED"/>
<path d="M15 13C14.7348 13 14.4804 13.1054 14.2929 13.2929C14.1054 13.4804 14 13.7348 14 14V19C14 19.2652 14.1054 19.5196 14.2929 19.7071C14.4804 19.8946 14.7348 20 15 20C15.2652 20 15.5196 19.8946 15.7071 19.7071C15.8946 19.5196 16 19.2652 16 19V14C16 13.7348 15.8946 13.4804 15.7071 13.2929C15.5196 13.1054 15.2652 13 15 13Z" fill="#8DCBED"/>
</svg>
