<svg width="24" height="24" viewBox="0 0 24 24" fill="none" xmlns="http://www.w3.org/2000/svg">
<path fill-rule="evenodd" clip-rule="evenodd" d="M2.69372 1.41455H14.8933C16.0655 1.41455 17.0245 2.37361 17.0245 3.54577V9.56457H16.8738C16.143 9.56457 15.5464 10.1612 15.5464 10.892V11.5913C15.5464 11.9641 15.7017 12.3021 15.9509 12.5437C15.7017 12.7853 15.5464 13.1233 15.5464 13.4961V14.1953C15.5464 14.5682 15.7017 14.9062 15.9509 15.1478C15.7017 15.3894 15.5464 15.7274 15.5464 16.1003V16.7995C15.5464 17.1724 15.7017 17.5103 15.9509 17.7519C15.7017 17.9935 15.5464 18.3315 15.5464 18.7043V19.4036C15.5464 19.7765 15.7017 20.1144 15.9509 20.356C15.7373 20.5631 15.5926 20.841 15.5557 21.151C15.342 21.2215 15.1184 21.2573 14.8933 21.2572H2.69372C1.52152 21.2572 0.5625 20.2981 0.5625 19.126V3.54577C0.5625 2.37361 1.52152 1.41455 2.69372 1.41455ZM16.8738 22.5852H22.8601C23.177 22.5852 23.4376 22.3246 23.4376 22.0077V21.3085C23.4376 20.9916 23.177 20.731 22.8601 20.731H16.8738C16.557 20.731 16.2964 20.9917 16.2964 21.3085V22.0077C16.2964 22.3245 16.557 22.5852 16.8738 22.5852V22.5852ZM16.8738 19.9811H22.8601C23.177 19.9811 23.4376 19.7205 23.4376 19.4036V18.7044C23.4376 18.3875 23.177 18.1269 22.8601 18.1269H16.8738C16.557 18.1269 16.2964 18.3876 16.2964 18.7044V19.4036C16.2964 19.7205 16.557 19.9811 16.8738 19.9811V19.9811ZM16.8738 14.7728H22.8601C23.177 14.7728 23.4376 14.5122 23.4376 14.1953V13.4961C23.4376 13.1792 23.177 12.9187 22.8601 12.9187H16.8738C16.557 12.9187 16.2964 13.1793 16.2964 13.4961V14.1953C16.2964 14.5122 16.557 14.7728 16.8738 14.7728V14.7728ZM16.8738 17.3769H22.8601C23.177 17.3769 23.4376 17.1164 23.4376 16.7995V16.1003C23.4376 15.7834 23.177 15.5228 22.8601 15.5228H16.8738C16.557 15.5228 16.2964 15.7834 16.2964 16.1003V16.7995C16.2964 17.1164 16.557 17.3769 16.8738 17.3769V17.3769ZM16.8738 12.1687H22.8601C23.177 12.1687 23.4376 11.9081 23.4376 11.5913V10.892C23.4376 10.5751 23.177 10.3146 22.8601 10.3146H16.8738C16.557 10.3146 16.2964 10.5752 16.2964 10.892V11.5913C16.2964 11.9081 16.557 12.1687 16.8738 12.1687V12.1687ZM3.40416 4.47361C3.1343 4.47361 2.91422 4.69369 2.91422 4.96355V6.8866C2.91422 7.15646 3.1343 7.37653 3.40416 7.37653H14.1829C14.4528 7.37653 14.6729 7.15646 14.6729 6.8866V4.96355C14.6729 4.69369 14.4528 4.47361 14.1829 4.47361H3.40416ZM3.8543 9.70988C3.58444 9.70988 3.36436 9.92996 3.36436 10.1998V10.8368C3.36436 11.1066 3.58444 11.3267 3.8543 11.3267H5.68547C5.95533 11.3267 6.17541 11.1066 6.17541 10.8368V10.1998C6.17541 9.92996 5.95533 9.70988 5.68547 9.70988H3.8543V9.70988ZM11.9016 16.5813C11.6317 16.5813 11.4116 16.8014 11.4116 17.0713V17.7082C11.4116 17.9781 11.6317 18.1981 11.9016 18.1981H13.7327C14.0026 18.1981 14.2227 17.9781 14.2227 17.7082V17.0713C14.2227 16.8014 14.0026 16.5813 13.7327 16.5813H11.9016ZM7.87791 16.5813C7.60805 16.5813 7.38797 16.8014 7.38797 17.0713V17.7082C7.38797 17.9781 7.60805 18.1981 7.87791 18.1981H9.70908C9.97894 18.1981 10.199 17.9781 10.199 17.7082V17.0713C10.199 16.8014 9.97894 16.5813 9.70908 16.5813H7.87791ZM3.8543 16.5813C3.58444 16.5813 3.36436 16.8014 3.36436 17.0713V17.7082C3.36436 17.9781 3.58444 18.1981 3.8543 18.1981H5.68547C5.95533 18.1981 6.17541 17.9781 6.17541 17.7082V17.0713C6.17541 16.8014 5.95533 16.5813 5.68547 16.5813H3.8543ZM11.9016 13.1456C11.6317 13.1456 11.4116 13.3657 11.4116 13.6356V14.2725C11.4116 14.5424 11.6317 14.7624 11.9016 14.7624H13.7327C14.0026 14.7624 14.2227 14.5424 14.2227 14.2725V13.6356C14.2227 13.3657 14.0026 13.1456 13.7327 13.1456H11.9016ZM7.87791 13.1456C7.60805 13.1456 7.38797 13.3657 7.38797 13.6356V14.2725C7.38797 14.5424 7.60805 14.7624 7.87791 14.7624H9.70908C9.97894 14.7624 10.199 14.5424 10.199 14.2725V13.6356C10.199 13.3657 9.97894 13.1456 9.70908 13.1456H7.87791ZM3.8543 13.1456C3.58444 13.1456 3.36436 13.3657 3.36436 13.6356V14.2725C3.36436 14.5424 3.58444 14.7624 3.8543 14.7624H5.68547C5.95533 14.7624 6.17541 14.5424 6.17541 14.2725V13.6356C6.17541 13.3657 5.95533 13.1456 5.68547 13.1456H3.8543ZM11.9016 9.70988C11.6317 9.70988 11.4116 9.92996 11.4116 10.1998V10.8368C11.4116 11.1066 11.6317 11.3267 11.9016 11.3267H13.7327C14.0026 11.3267 14.2227 11.1066 14.2227 10.8368V10.1998C14.2227 9.92996 14.0026 9.70988 13.7327 9.70988H11.9016ZM7.87791 9.70988C7.60805 9.70988 7.38797 9.92996 7.38797 10.1998V10.8368C7.38797 11.1066 7.60805 11.3267 7.87791 11.3267H9.70908C9.97894 11.3267 10.199 11.1066 10.199 10.8368V10.1998C10.199 9.92996 9.97894 9.70988 9.70908 9.70988H7.87791Z" fill="#2FA0DF"/>
</svg>
