<svg width="24" height="24" viewBox="0 0 24 24" fill="none" xmlns="http://www.w3.org/2000/svg">
<path d="M12.6309 19.3794C11.684 19.3794 10.7368 19.1948 9.83449 18.8245C8.01283 18.0774 6.59077 16.6647 5.83021 14.8471C5.06965 13.0289 5.06233 11.0245 5.80939 9.20281C6.55675 7.38115 7.96915 5.95909 9.78733 5.19907C11.1004 4.64947 12.5199 4.48831 13.8915 4.73503C14.0152 4.75729 14.1121 4.85455 14.1338 4.97821C14.1558 5.10187 14.098 5.22667 13.9894 5.28991C11.5237 6.72427 10.4966 9.79519 11.6002 12.4331C12.7036 15.071 15.6104 16.496 18.3643 15.7477C18.485 15.7149 18.6151 15.7606 18.6877 15.8638C18.7604 15.9663 18.7615 16.1034 18.6904 16.2071C17.9014 17.3573 16.7908 18.255 15.4786 18.8034C14.5609 19.1878 13.5959 19.3794 12.6309 19.3794ZM12.6291 5.22313C11.744 5.22313 10.858 5.40127 10.0187 5.75221C8.34847 6.45067 7.05091 7.75729 6.36451 9.43075C5.67835 11.1042 5.68513 12.9452 6.38383 14.6151C7.08229 16.2856 8.38861 17.5829 10.0621 18.2696C11.7355 18.9563 13.5768 18.9493 15.247 18.2503C16.2036 17.8501 17.0429 17.2489 17.7103 16.4907C14.9245 16.8674 12.1577 15.3212 11.0465 12.6651C9.93523 10.0085 10.7802 6.95395 13.0012 5.23369C12.8772 5.22661 12.753 5.22313 12.6291 5.22313Z" fill="#2FA0DF"/>
</svg>
