<svg width="24" height="24" viewBox="0 0 24 24" fill="none" xmlns="http://www.w3.org/2000/svg">
<path d="M21.0002 10.9999C20.735 10.9999 20.4806 11.1053 20.2931 11.2928C20.1055 11.4804 20.0002 11.7347 20.0002 11.9999V14.5899L13.7102 8.28994C13.6172 8.19621 13.5066 8.12182 13.3848 8.07105C13.2629 8.02028 13.1322 7.99414 13.0002 7.99414C12.8682 7.99414 12.7375 8.02028 12.6156 8.07105C12.4937 8.12182 12.3831 8.19621 12.2902 8.28994L9.00019 11.5899L3.71019 6.28994C3.52188 6.10164 3.26649 5.99585 3.00019 5.99585C2.73388 5.99585 2.47849 6.10164 2.29019 6.28994C2.10188 6.47825 1.99609 6.73364 1.99609 6.99994C1.99609 7.26624 2.10188 7.52164 2.29019 7.70994L8.29019 13.7099C8.38315 13.8037 8.49375 13.8781 8.61561 13.9288C8.73747 13.9796 8.86817 14.0057 9.00019 14.0057C9.1322 14.0057 9.2629 13.9796 9.38476 13.9288C9.50662 13.8781 9.61722 13.8037 9.71019 13.7099L13.0002 10.4099L18.5902 15.9999H16.0002C15.735 15.9999 15.4806 16.1053 15.2931 16.2928C15.1055 16.4804 15.0002 16.7347 15.0002 16.9999C15.0002 17.2652 15.1055 17.5195 15.2931 17.707C15.4806 17.8946 15.735 17.9999 16.0002 17.9999H21.0002C21.1309 17.9984 21.26 17.9712 21.3802 17.9199C21.6245 17.8185 21.8187 17.6243 21.9202 17.3799C21.9714 17.2597 21.9986 17.1306 22.0002 16.9999V11.9999C22.0002 11.7347 21.8948 11.4804 21.7073 11.2928C21.5198 11.1053 21.2654 10.9999 21.0002 10.9999Z" fill="white"/>
</svg>
