<svg width="87" height="98" viewBox="0 0 87 98" fill="none" xmlns="http://www.w3.org/2000/svg">
<path d="M38.3963 0.148582C27.7644 1.36485 17.4891 6.75417 10.5899 14.7648C6.14424 19.8815 2.85194 26.1515 1.27918 32.4216C0.0209702 37.3496 0 37.6222 0 48.275C0 58.9278 0.0838805 60.0392 1.27918 64.7575C3.04067 71.8664 6.77335 78.5768 11.932 84.0081C18.5376 90.9282 27.6596 95.6046 37.18 96.9047C39.2141 97.1983 42.9049 97.2402 63.0152 97.2402H86.5017V69.2661C86.5017 41.3549 86.4598 39.0272 85.7468 35.2735C83.6498 23.9077 76.9394 13.7372 67.2721 7.25745C62.1974 3.83932 56.9758 1.74231 50.6428 0.547012C47.9167 0.0437317 41.2902 -0.16597 38.3963 0.148582ZM45.2954 20.0702C50.8316 20.5945 55.3192 22.3979 59.5551 25.795C63.6862 29.1083 66.8527 34.0782 68.2997 39.4676L68.9707 41.984L69.0546 56.705L69.1175 71.447H72.4517H75.807V75.7459V80.0447L68.2158 80.0028L60.6036 79.9399L60.4988 61.2765C60.373 40.8516 60.4359 41.963 59.1148 38.9852C57.9614 36.385 55.9273 33.7637 53.7254 32.107C52.0478 30.8488 49.091 29.4438 47.0779 28.9615C44.876 28.4582 41.2272 28.5002 39.0044 29.0873C31.7488 30.9537 26.5272 37.056 25.9191 44.3955L25.7932 45.9683L21.5573 46.0312L17.3003 46.0731V44.6262C17.3003 40.3064 19.3344 34.6235 22.3332 30.5553C27.0514 24.1594 33.8458 20.5945 42.5693 19.9024C42.8 19.8815 44.0372 19.9653 45.2954 20.0702ZM45.1906 47.0378C47.3715 47.6459 49.4895 49.701 50.1186 51.777C51.1881 55.3839 49.6363 58.9278 46.281 60.5845C45.0438 61.1926 44.6873 61.2765 43.1984 61.2765C41.1853 61.2555 39.6964 60.6683 38.1866 59.2843C35.6073 56.9147 35.2298 52.511 37.3268 49.7639C39.2561 47.2265 42.2338 46.199 45.1906 47.0378Z" fill="#2FA0DF"/>
</svg>
