<svg width="601" height="601" viewBox="0 0 601 601" fill="none" xmlns="http://www.w3.org/2000/svg">
<path d="M275.759 134.223C250.367 137.128 225.826 150 209.348 169.131C198.731 181.352 190.868 196.327 187.111 211.302C184.106 223.071 184.056 223.722 184.056 249.165C184.056 274.607 184.257 277.261 187.111 288.53C191.318 305.508 200.233 321.535 212.554 334.507C228.33 351.034 250.116 362.203 272.854 365.308C277.712 366.009 286.527 366.109 334.557 366.109H390.65V299.298C390.65 232.637 390.55 227.078 388.847 218.113C383.839 190.968 367.812 166.677 344.724 151.202C332.603 143.038 320.133 138.03 305.008 135.175C298.497 133.973 282.67 133.472 275.759 134.223ZM292.236 181.803C305.458 183.055 316.176 187.362 326.293 195.475C336.159 203.388 343.722 215.258 347.178 228.13L348.78 234.14L348.981 269.298L349.131 304.507H357.094H365.108V314.774V325.041L346.977 324.941L328.797 324.79L328.547 280.216C328.246 231.435 328.396 234.09 325.241 226.978C322.487 220.767 317.629 214.507 312.37 210.55C308.363 207.545 301.301 204.19 296.493 203.038C291.235 201.836 282.52 201.936 277.211 203.338C259.882 207.796 247.412 222.37 245.959 239.899L245.659 243.655L235.542 243.806L225.375 243.906V240.45C225.375 230.133 230.233 216.56 237.395 206.844C248.664 191.569 264.891 183.055 285.725 181.402C286.276 181.352 289.231 181.552 292.236 181.803ZM291.986 246.21C297.195 247.662 302.253 252.57 303.755 257.529C306.31 266.143 302.604 274.607 294.59 278.564C291.635 280.016 290.784 280.216 287.228 280.216C282.42 280.166 278.864 278.764 275.258 275.458C269.098 269.799 268.196 259.281 273.205 252.721C277.812 246.66 284.924 244.206 291.986 246.21Z" fill="#2FA0DF"/>
<path d="M194.323 415.692V430.717H197.128H199.983L199.732 419.698C199.582 413.638 199.582 408.78 199.732 408.93C199.883 409.081 201.736 413.989 203.839 419.849L207.646 430.466L209.649 430.616L211.652 430.767L215.108 421.101C220.267 406.576 219.916 406.677 219.565 419.548L219.215 430.717H222.32H225.375V415.692V400.667H221.469H217.512L214.357 409.782C210.6 420.7 209.899 422.453 209.599 422.102C209.449 422.002 207.696 417.144 205.642 411.384L201.936 400.917L198.13 400.767L194.323 400.617V415.692Z" fill="#2FA0DF"/>
<path d="M241.652 408.63C239.398 409.181 238.196 409.932 236.494 411.885C232.988 415.892 232.988 423.505 236.494 427.511C238.697 430.016 240.65 430.867 244.206 430.917C248.013 430.917 250.617 429.615 252.67 426.76C253.973 424.857 254.173 424.106 254.323 420.45C254.473 417.144 254.323 415.842 253.522 414.089C252.32 411.385 249.916 409.431 246.911 408.73C244.357 408.129 243.806 408.129 241.652 408.63ZM247.011 414.139C248.363 415.341 248.614 415.942 248.814 418.546C249.115 422.703 248.263 425.057 246.11 426.109C244.006 427.111 242.203 426.56 240.701 424.556C239.298 422.653 239.198 417.094 240.55 415.041C242.253 412.436 244.707 412.086 247.011 414.139Z" fill="#2FA0DF"/>
<path d="M272.153 408.68C271.301 408.93 270.2 409.632 269.699 410.183C268.497 411.535 267.946 411.435 267.946 409.932C267.946 408.78 267.796 408.68 265.442 408.68H262.938V419.698V430.717H265.692H268.447V422.804C268.447 415.391 268.497 414.79 269.498 413.889C270.15 413.288 271.251 412.937 272.554 412.937C275.709 412.937 275.959 413.638 275.959 422.804V430.717H278.714H281.468V422.203C281.468 412.987 281.068 410.934 278.864 409.481C277.362 408.48 274.106 408.129 272.153 408.68Z" fill="#2FA0DF"/>
<path d="M296.944 408.93C292.136 410.433 289.331 416.092 290.383 422.102C291.335 427.862 294.991 430.867 301.051 430.917C303.705 430.917 304.757 430.667 306.66 429.565C307.912 428.814 309.064 428.012 309.215 427.812C309.315 427.612 308.864 426.71 308.213 425.809L306.961 424.206L305.458 425.358C304.356 426.159 303.205 426.46 301.402 426.46C299.248 426.46 298.747 426.259 297.445 424.807C294.841 421.902 295.141 421.702 303.004 421.702H310.016V419.548C310.016 414.89 307.962 410.934 304.757 409.281C302.904 408.329 299.348 408.179 296.944 408.93ZM302.153 413.238C303.405 413.789 304.507 415.592 304.507 416.944C304.507 417.545 303.655 417.695 300.2 417.695H295.892L296.243 416.343C296.994 413.338 299.498 412.036 302.153 413.238Z" fill="#2FA0DF"/>
<path d="M347.228 408.73C344.824 409.431 342.219 412.787 341.518 416.092C340.116 422.904 342.871 429.465 347.679 430.767C350.083 431.368 352.687 430.917 354.44 429.565L355.742 428.513L355.441 430.466C354.79 434.423 350.433 436.025 346.677 433.722L344.974 432.67L343.922 434.072C343.321 434.823 342.82 435.675 342.82 435.975C342.82 436.226 343.972 437.027 345.325 437.728C347.328 438.73 348.53 438.98 351.184 438.93C355.542 438.83 358.547 437.227 360.049 434.072C361.001 432.069 361.101 431.067 361.101 420.299V408.68H358.597C356.443 408.68 356.093 408.83 356.093 409.682C356.093 410.934 355.892 410.934 354.189 409.682C352.537 408.48 349.381 408.029 347.228 408.73ZM354.69 414.039C355.441 414.69 355.592 415.642 355.592 419.698C355.592 423.955 355.492 424.657 354.54 425.508C353.188 426.71 349.982 426.76 348.68 425.508C345.725 422.904 346.477 414.54 349.732 413.187C351.184 412.586 353.538 412.987 354.69 414.039Z" fill="#2FA0DF"/>
<path d="M376.076 408.93C371.268 410.433 368.463 416.092 369.515 422.102C370.466 427.862 374.123 430.867 380.183 430.917C382.837 430.917 383.889 430.667 385.792 429.565C387.044 428.814 388.196 428.012 388.346 427.812C388.446 427.612 387.996 426.71 387.345 425.809L386.092 424.206L384.59 425.358C383.488 426.159 382.336 426.46 380.533 426.46C378.38 426.46 377.879 426.259 376.577 424.807C373.972 421.902 374.273 421.702 382.136 421.702H389.148V419.548C389.148 414.89 387.094 410.934 383.889 409.281C382.036 408.329 378.48 408.179 376.076 408.93ZM381.284 413.238C382.537 413.789 383.638 415.592 383.638 416.944C383.638 417.545 382.787 417.695 379.331 417.695H375.024L375.375 416.343C376.126 413.338 378.63 412.036 381.284 413.238Z" fill="#2FA0DF"/>
<path d="M404.924 408.981C404.122 409.381 403.221 410.132 402.971 410.583C402.52 411.334 402.42 411.284 402.169 410.183C401.919 409.081 401.568 408.93 399.264 408.78L396.66 408.63V419.648V430.717H399.415H402.169V423.204C402.169 415.792 402.169 415.692 403.421 414.89C404.072 414.44 405.575 413.989 406.677 413.839L408.73 413.538L408.58 410.984C408.43 408.079 407.528 407.578 404.924 408.981Z" fill="#2FA0DF"/>
<path d="M315.024 409.031C315.024 409.281 316.727 414.339 318.831 420.299L322.637 431.167L321.685 432.82C321.034 433.972 320.183 434.623 318.881 434.924C317.178 435.374 317.028 435.525 317.028 437.278C317.028 438.83 317.228 439.181 318.28 439.431C320.884 440.082 324.29 438.429 325.742 435.825C325.942 435.525 328.196 429.214 330.75 421.902L335.408 408.63L332.353 408.78L329.298 408.93L327.345 415.541C326.243 419.197 325.241 422.202 325.091 422.202C324.891 422.202 323.889 419.147 322.837 415.441L320.884 408.68H317.979C316.326 408.68 315.024 408.83 315.024 409.031Z" fill="#2FA0DF"/>
</svg>
