<svg width="81" height="110" viewBox="0 0 81 110" fill="none" xmlns="http://www.w3.org/2000/svg">
<path d="M32.9968 0.127571C23.8601 1.1728 15.0297 5.80425 9.10071 12.6884C5.28021 17.0855 2.45088 22.4739 1.09929 27.8622C0.0180213 32.0972 0 32.3315 0 41.4863C0 50.641 0.0720849 51.5962 1.09929 55.6509C2.61308 61.7601 5.82085 67.5269 10.2541 72.1944C15.9308 78.1414 23.77 82.1601 31.9516 83.2775C33.6997 83.5298 36.8714 83.5658 54.1537 83.5658H74.3375V59.5255C74.3375 35.5393 74.3015 33.5389 73.6887 30.3131C71.8866 20.5456 66.1198 11.8053 57.812 6.23676C53.4509 3.2993 48.9636 1.49718 43.5212 0.469971C41.1785 0.0374603 35.4838 -0.142746 32.9968 0.127571ZM38.9258 17.2477C43.6834 17.6983 47.54 19.2481 51.1802 22.1675C54.7304 25.0149 57.4516 29.2859 58.6951 33.9173L59.2718 36.0799L59.3438 48.7308L59.3979 61.3997H62.2633H65.1467V65.0941V68.7884L58.623 68.7524L52.0813 68.6983L51.9912 52.6594C51.8831 35.1068 51.9371 36.0619 50.8018 33.5029C49.8106 31.2682 48.0626 29.0156 46.1703 27.5919C44.7286 26.5106 42.1877 25.3032 40.4576 24.8887C38.5654 24.4562 35.4297 24.4923 33.5195 24.9968C27.2841 26.6007 22.7968 31.8449 22.2742 38.1523L22.1661 39.5039L18.5258 39.558L14.8675 39.594V38.3506C14.8675 34.6382 16.6156 29.7544 19.1926 26.2583C23.2474 20.7619 29.0862 17.6983 36.5831 17.1036C36.7813 17.0855 37.8445 17.1576 38.9258 17.2477ZM38.8357 40.423C40.7099 40.9456 42.5301 42.7117 43.0707 44.4958C43.9898 47.5955 42.6562 50.641 39.7728 52.0647C38.7096 52.5873 38.4032 52.6594 37.1237 52.6594C35.3937 52.6414 34.1142 52.1368 32.8166 50.9474C30.6 48.911 30.2756 45.1265 32.0778 42.7658C33.7357 40.5852 36.2947 39.7022 38.8357 40.423Z" fill="#2FA0DF"/>
<path d="M3.69434 101.407V106.813H4.70352H5.73073L5.64063 102.848C5.58656 100.668 5.58656 98.9199 5.64063 98.9739C5.69469 99.028 6.36148 100.794 7.11837 102.903L8.48798 106.723L9.20883 106.777L9.92968 106.831L11.1731 103.353C13.0293 98.1269 12.9032 98.163 12.777 102.794L12.6509 106.813H13.7682H14.8675V101.407V96.0004H13.4618H12.0382L10.9028 99.2803C9.55123 103.209 9.29893 103.84 9.19081 103.714C9.13674 103.677 8.506 101.929 7.76713 99.857L6.43356 96.0905L5.06395 96.0365L3.69434 95.9824V101.407Z" fill="#2FA0DF"/>
<path d="M20.7244 98.8658C19.9135 99.064 19.481 99.3344 18.8682 100.037C17.6067 101.479 17.6067 104.218 18.8682 105.66C19.6612 106.561 20.364 106.867 21.6435 106.885C23.0131 106.885 23.9502 106.417 24.6891 105.389C25.1576 104.705 25.2297 104.434 25.2838 103.119C25.3378 101.929 25.2838 101.461 24.9954 100.83C24.5629 99.857 23.6979 99.1542 22.6166 98.9019C21.6976 98.6856 21.4993 98.6856 20.7244 98.8658ZM22.6527 100.848C23.1393 101.281 23.2294 101.497 23.3015 102.434C23.4096 103.93 23.1032 104.777 22.3283 105.155C21.5714 105.516 20.9227 105.317 20.382 104.597C19.8774 103.912 19.8414 101.911 20.328 101.173C20.9407 100.235 21.8237 100.109 22.6527 100.848Z" fill="#2FA0DF"/>
<path d="M31.6992 98.8839C31.3928 98.974 30.9964 99.2263 30.8162 99.4245C30.3837 99.9111 30.1854 99.8751 30.1854 99.3344C30.1854 98.9199 30.1314 98.8839 29.2844 98.8839H28.3833V102.849V106.813H29.3745H30.3656V103.966C30.3656 101.299 30.3837 101.082 30.7441 100.758C30.9784 100.542 31.3748 100.416 31.8434 100.416C32.9787 100.416 33.0688 100.668 33.0688 103.966V106.813H34.06H35.0511V103.75C35.0511 100.434 34.907 99.6949 34.114 99.1722C33.5734 98.8118 32.402 98.6857 31.6992 98.8839Z" fill="#2FA0DF"/>
<path d="M40.6197 98.9739C38.8896 99.5146 37.8804 101.551 38.2589 103.714C38.6013 105.786 39.9168 106.867 42.0974 106.885C43.0525 106.885 43.431 106.795 44.1158 106.399C44.5663 106.128 44.9808 105.84 45.0349 105.768C45.0709 105.696 44.9087 105.371 44.6744 105.047L44.2239 104.47L43.6833 104.885C43.2868 105.173 42.8723 105.281 42.2235 105.281C41.4486 105.281 41.2684 105.209 40.7999 104.687C39.8628 103.641 39.9709 103.569 42.8002 103.569H45.3232V102.794C45.3232 101.118 44.5843 99.6948 43.431 99.1001C42.7642 98.7577 41.4847 98.7036 40.6197 98.9739ZM42.4939 100.524C42.9444 100.722 43.3409 101.371 43.3409 101.857C43.3409 102.074 43.0345 102.128 41.791 102.128H40.2412L40.3674 101.641C40.6377 100.56 41.5387 100.091 42.4939 100.524Z" fill="#2FA0DF"/>
<path d="M58.7131 98.9019C57.8481 99.1542 56.911 100.362 56.6587 101.551C56.1541 104.002 57.1452 106.363 58.8753 106.831C59.7403 107.048 60.6774 106.885 61.3081 106.399L61.7767 106.02L61.6686 106.723C61.4343 108.147 59.8664 108.723 58.5148 107.895L57.9021 107.516L57.5237 108.021C57.3074 108.291 57.1272 108.597 57.1272 108.705C57.1272 108.796 57.5417 109.084 58.0283 109.336C58.7491 109.697 59.1816 109.787 60.1367 109.769C61.7046 109.733 62.7859 109.156 63.3265 108.021C63.6689 107.3 63.7049 106.939 63.7049 103.065V98.8839H62.8039C62.029 98.8839 61.9028 98.938 61.9028 99.2443C61.9028 99.6948 61.8307 99.6948 61.218 99.2443C60.6233 98.8118 59.488 98.6496 58.7131 98.9019ZM61.3982 100.812C61.6686 101.046 61.7226 101.389 61.7226 102.849C61.7226 104.38 61.6866 104.633 61.3442 104.939C60.8576 105.372 59.7042 105.39 59.2357 104.939C58.1724 104.002 58.4428 100.992 59.6141 100.506C60.1367 100.29 60.9837 100.434 61.3982 100.812Z" fill="#2FA0DF"/>
<path d="M69.0933 98.9739C67.3633 99.5146 66.3541 101.551 66.7325 103.714C67.0749 105.786 68.3905 106.867 70.571 106.885C71.5262 106.885 71.9046 106.795 72.5894 106.399C73.0399 106.128 73.4544 105.84 73.5085 105.768C73.5445 105.696 73.3823 105.371 73.1481 105.047L72.6975 104.47L72.1569 104.885C71.7604 105.173 71.3459 105.281 70.6972 105.281C69.9223 105.281 69.7421 105.209 69.2735 104.687C68.3364 103.641 68.4445 103.569 71.2739 103.569H73.7968V102.794C73.7968 101.118 73.058 99.6948 71.9046 99.1001C71.2378 98.7577 69.9583 98.7036 69.0933 98.9739ZM70.9675 100.524C71.418 100.722 71.8145 101.371 71.8145 101.857C71.8145 102.074 71.5081 102.128 70.2647 102.128H68.7148L68.841 101.641C69.1113 100.56 70.0124 100.091 70.9675 100.524Z" fill="#2FA0DF"/>
<path d="M79.4737 98.992C79.1854 99.1362 78.861 99.4065 78.7709 99.5687C78.6087 99.839 78.5727 99.821 78.4826 99.4245C78.3925 99.0281 78.2663 98.974 77.4373 98.9199L76.5002 98.8659V102.831V106.813H77.4914H78.4826V104.11C78.4826 101.443 78.4826 101.407 78.9331 101.119C79.1674 100.956 79.708 100.794 80.1045 100.74L80.8434 100.632L80.7893 99.7129C80.7352 98.6676 80.4108 98.4874 79.4737 98.992Z" fill="#2FA0DF"/>
<path d="M47.1255 99.01C47.1255 99.1001 47.7382 100.92 48.4951 103.065L49.8647 106.975L49.5223 107.57C49.288 107.985 48.9817 108.219 48.5131 108.327C47.9004 108.489 47.8463 108.543 47.8463 109.174C47.8463 109.733 47.9184 109.859 48.2969 109.949C49.234 110.183 50.4594 109.588 50.982 108.651C51.0541 108.543 51.8651 106.273 52.7841 103.641L54.4601 98.8658L53.3608 98.9199L52.2615 98.974L51.5587 101.353C51.1622 102.668 50.8018 103.75 50.7478 103.75C50.6757 103.75 50.3152 102.65 49.9368 101.317L49.234 98.8839H48.1887C47.594 98.8839 47.1255 98.9379 47.1255 99.01Z" fill="#2FA0DF"/>
</svg>
