<svg width="24" height="24" viewBox="0 0 24 24" fill="none" xmlns="http://www.w3.org/2000/svg">
<g clip-path="url(#clip0_295_578)">
<path d="M22.875 13.125H17.625C17.5255 13.125 17.4302 13.1645 17.3598 13.2348C17.2895 13.3052 17.25 13.4005 17.25 13.5V22.5H15V7.125C15 7.02554 14.9605 6.93016 14.8902 6.85983C14.8198 6.78951 14.7245 6.75 14.625 6.75H9.375C9.27554 6.75 9.18016 6.78951 9.10983 6.85983C9.03951 6.93016 9 7.02554 9 7.125V22.5H6.75V12C6.75 11.9005 6.71049 11.8052 6.64017 11.7348C6.56984 11.6645 6.47446 11.625 6.375 11.625H1.125C1.02554 11.625 0.930161 11.6645 0.859835 11.7348C0.789509 11.8052 0.75 11.9005 0.75 12V22.875C0.75 22.9745 0.789509 23.0698 0.859835 23.1402C0.930161 23.2105 1.02554 23.25 1.125 23.25H22.875C22.9745 23.25 23.0698 23.2105 23.1402 23.1402C23.2105 23.0698 23.25 22.9745 23.25 22.875V13.5C23.25 13.4005 23.2105 13.3052 23.1402 13.2348C23.0698 13.1645 22.9745 13.125 22.875 13.125Z" fill="#318FB5"/>
<path d="M3.75 10.125C4.99264 10.125 6 9.11764 6 7.875C6 6.63236 4.99264 5.625 3.75 5.625C2.50736 5.625 1.5 6.63236 1.5 7.875C1.5 9.11764 2.50736 10.125 3.75 10.125Z" fill="#2FA0DF"/>
<path d="M12 5.25C13.2426 5.25 14.25 4.24264 14.25 3C14.25 1.75736 13.2426 0.75 12 0.75C10.7574 0.75 9.75 1.75736 9.75 3C9.75 4.24264 10.7574 5.25 12 5.25Z" fill="#2FA0DF"/>
<path d="M20.25 11.625C21.4926 11.625 22.5 10.6176 22.5 9.375C22.5 8.13236 21.4926 7.125 20.25 7.125C19.0074 7.125 18 8.13236 18 9.375C18 10.6176 19.0074 11.625 20.25 11.625Z" fill="#2FA0DF"/>
<path d="M22.875 13.125H17.625C17.5255 13.125 17.4302 13.1645 17.3598 13.2348C17.2895 13.3052 17.25 13.4005 17.25 13.5V22.5H15V7.125C15 7.02554 14.9605 6.93016 14.8902 6.85983C14.8198 6.78951 14.7245 6.75 14.625 6.75H9.375C9.27554 6.75 9.18016 6.78951 9.10983 6.85983C9.03951 6.93016 9 7.02554 9 7.125V22.5H6.75V12C6.75 11.9005 6.71049 11.8052 6.64017 11.7348C6.56984 11.6645 6.47446 11.625 6.375 11.625H1.125C1.02554 11.625 0.930161 11.6645 0.859835 11.7348C0.789509 11.8052 0.75 11.9005 0.75 12V22.875C0.75 22.9745 0.789509 23.0698 0.859835 23.1402C0.930161 23.2105 1.02554 23.25 1.125 23.25H22.875C22.9745 23.25 23.0698 23.2105 23.1402 23.1402C23.2105 23.0698 23.25 22.9745 23.25 22.875V13.5C23.25 13.4005 23.2105 13.3052 23.1402 13.2348C23.0698 13.1645 22.9745 13.125 22.875 13.125ZM1.5 22.5V12.375H6V22.5H1.5ZM9.75 22.5V7.5H14.25V22.5H9.75ZM18 22.5V13.875H22.5V22.5H18Z" fill="#006BB8"/>
<path d="M3.75001 10.1252C4.11037 10.1262 4.46567 10.0404 4.78585 9.87502C5.10604 9.70966 5.38168 9.46961 5.58947 9.17519C5.79725 8.88077 5.93107 8.54063 5.97959 8.18355C6.02812 7.82647 5.98992 7.46295 5.86824 7.12376L10.2471 4.40752C10.4422 4.65167 10.6862 4.85234 10.9634 4.99668C11.2406 5.14101 11.5449 5.22582 11.8568 5.24566C12.1687 5.26551 12.4813 5.21995 12.7746 5.1119C13.0678 5.00386 13.3352 4.83572 13.5597 4.61827L18.2444 8.36077C17.9889 8.86517 17.9321 9.44716 18.0855 9.9914C18.2389 10.5356 18.5911 11.0024 19.0724 11.2992C19.5537 11.5959 20.1289 11.7011 20.684 11.5937C21.2392 11.4863 21.7337 11.1743 22.0697 10.7195C22.4056 10.2646 22.5584 9.70019 22.4977 9.13802C22.4371 8.57584 22.1675 8.05697 21.7423 7.68424C21.3171 7.3115 20.7674 7.11212 20.2021 7.1256C19.6368 7.13908 19.0972 7.36444 18.6903 7.75702L14.0056 4.01452C14.175 3.68225 14.2591 3.3131 14.2504 2.94027C14.2417 2.56744 14.1405 2.2026 13.9559 1.87858C13.7712 1.55455 13.509 1.28148 13.1927 1.08392C12.8764 0.886354 12.5159 0.770494 12.1438 0.746753C11.7716 0.723011 11.3993 0.792132 11.0605 0.947901C10.7217 1.10367 10.4268 1.3412 10.2025 1.63915C9.97824 1.93709 9.83151 2.28611 9.77552 2.65481C9.71953 3.02352 9.75605 3.40036 9.88179 3.75146L5.50287 6.46785C5.26478 6.17134 4.9554 5.94003 4.60365 5.79556C4.25189 5.65108 3.86925 5.59815 3.49148 5.64172C3.11371 5.68528 2.75316 5.82391 2.44352 6.04466C2.13388 6.2654 1.88527 6.56105 1.72091 6.90397C1.55656 7.24689 1.48184 7.62588 1.50373 8.00552C1.52562 8.38516 1.64341 8.75305 1.84609 9.07481C2.04877 9.39656 2.32972 9.66168 2.66268 9.84537C2.99564 10.0291 3.36974 10.1253 3.75001 10.1252V10.1252ZM20.25 7.87518C20.5467 7.87518 20.8367 7.96316 21.0834 8.12798C21.33 8.2928 21.5223 8.52707 21.6358 8.80116C21.7494 9.07525 21.7791 9.37685 21.7212 9.66782C21.6633 9.95879 21.5205 10.2261 21.3107 10.4358C21.1009 10.6456 20.8336 10.7885 20.5426 10.8464C20.2517 10.9042 19.9501 10.8745 19.676 10.761C19.4019 10.6475 19.1676 10.4552 19.0028 10.2085C18.838 9.96186 18.75 9.67186 18.75 9.37518C18.7505 8.9775 18.9086 8.59622 19.1898 8.31502C19.4711 8.03381 19.8523 7.87563 20.25 7.87518V7.87518ZM12 1.50018C12.2967 1.50018 12.5867 1.58816 12.8334 1.75298C13.08 1.9178 13.2723 2.15207 13.3858 2.42616C13.4994 2.70025 13.5291 3.00185 13.4712 3.29282C13.4133 3.58379 13.2705 3.85106 13.0607 4.06084C12.8509 4.27062 12.5836 4.41348 12.2926 4.47136C12.0017 4.52924 11.7001 4.49953 11.426 4.386C11.1519 4.27247 10.9176 4.08021 10.7528 3.83354C10.588 3.58686 10.5 3.29686 10.5 3.00018C10.5005 2.6025 10.6586 2.22122 10.9398 1.94002C11.2211 1.65881 11.6023 1.50063 12 1.50018V1.50018ZM3.75001 6.37518C4.04668 6.37518 4.33669 6.46316 4.58337 6.62798C4.83004 6.7928 5.0223 7.02707 5.13583 7.30116C5.24936 7.57525 5.27907 7.87685 5.22119 8.16782C5.16331 8.45879 5.02045 8.72606 4.81067 8.93584C4.60089 9.14562 4.33362 9.28848 4.04265 9.34636C3.75168 9.40424 3.45008 9.37453 3.17599 9.261C2.9019 9.14747 2.66763 8.95521 2.50281 8.70854C2.33799 8.46186 2.25001 8.17186 2.25001 7.87518C2.25046 7.4775 2.40864 7.09622 2.68985 6.81502C2.97105 6.53381 3.35232 6.37563 3.75001 6.37518V6.37518Z" fill="#006BB8"/>
</g>
<defs>
<clipPath id="clip0_295_578">
<rect width="24" height="24" fill="white"/>
</clipPath>
</defs>
</svg>
