<svg width="30" height="30" viewBox="0 0 30 30" fill="none" xmlns="http://www.w3.org/2000/svg">
<circle cx="15" cy="15" r="15" fill="#303136"/>
<path d="M22.3 24H7.9C7.66131 24 7.43239 23.9052 7.2636 23.7364C7.09482 23.5676 7 23.3387 7 23.1V6.9C7 6.66131 7.09482 6.43239 7.2636 6.2636C7.43239 6.09482 7.66131 6 7.9 6H22.3C22.5387 6 22.7676 6.09482 22.9364 6.2636C23.1052 6.43239 23.2 6.66131 23.2 6.9V23.1C23.2 23.3387 23.1052 23.5676 22.9364 23.7364C22.7676 23.9052 22.5387 24 22.3 24ZM21.4 22.2V7.8H8.8V22.2H21.4ZM10.6 9.6H14.2V13.2H10.6V9.6ZM10.6 15H19.6V16.8H10.6V15ZM10.6 18.6H19.6V20.4H10.6V18.6ZM16 10.5H19.6V12.3H16V10.5Z" fill="#8DCBED"/>
</svg>
