<svg width="24" height="24" viewBox="0 0 24 24" fill="none" xmlns="http://www.w3.org/2000/svg">
<path d="M21.0002 13.0001C20.735 13.0001 20.4806 12.8947 20.2931 12.7072C20.1055 12.5196 20.0002 12.2653 20.0002 12.0001V9.41006L13.7102 15.7101C13.6172 15.8038 13.5066 15.8782 13.3848 15.9289C13.2629 15.9797 13.1322 16.0059 13.0002 16.0059C12.8682 16.0059 12.7375 15.9797 12.6156 15.9289C12.4937 15.8782 12.3831 15.8038 12.2902 15.7101L9.00019 12.4101L3.71019 17.7101C3.52188 17.8984 3.26649 18.0042 3.00019 18.0042C2.73388 18.0042 2.47849 17.8984 2.29019 17.7101C2.10188 17.5218 1.99609 17.2664 1.99609 17.0001C1.99609 16.7338 2.10188 16.4784 2.29019 16.2901L8.29019 10.2901C8.38315 10.1963 8.49375 10.1219 8.61561 10.0712C8.73747 10.0204 8.86817 9.99426 9.00019 9.99426C9.1322 9.99426 9.2629 10.0204 9.38476 10.0712C9.50662 10.1219 9.61722 10.1963 9.71019 10.2901L13.0002 13.5901L18.5902 8.00006H16.0002C15.735 8.00006 15.4806 7.8947 15.2931 7.70717C15.1055 7.51963 15.0002 7.26528 15.0002 7.00006C15.0002 6.73484 15.1055 6.48049 15.2931 6.29295C15.4806 6.10542 15.735 6.00006 16.0002 6.00006H21.0002C21.1309 6.00164 21.26 6.02882 21.3802 6.08006C21.6245 6.18153 21.8187 6.37571 21.9202 6.62006C21.9714 6.74028 21.9986 6.86938 22.0002 7.00006V12.0001C22.0002 12.2653 21.8948 12.5196 21.7073 12.7072C21.5198 12.8947 21.2654 13.0001 21.0002 13.0001Z" fill="white"/>
</svg>
