<svg width="24" height="24" viewBox="0 0 24 24" fill="none" xmlns="http://www.w3.org/2000/svg">
<g clip-path="url(#clip0_380_1007)">
<path d="M12 13.1639C10.6456 12.414 9.50934 11.4175 8.69058 10.2567C7.75838 8.93513 7.26562 7.42758 7.26562 5.89711V2.23655C8.40993 2.09435 9.52283 1.76383 10.5593 1.25836C11.0784 1.00258 11.5727 0.699005 12.0355 0.351562C12.6637 0.788273 13.337 1.1561 14.0439 1.44867C14.9071 1.80689 15.8105 2.05925 16.7344 2.20027V5.89711C16.7344 7.42758 16.2416 8.93508 15.3094 10.2567C14.4907 11.4175 13.3544 12.414 12 13.1639Z" fill="#F8BE32"/>
<path d="M12 11.5181C11.1307 10.9363 10.3926 10.2298 9.83972 9.44592C9.0757 8.36273 8.67188 7.13555 8.67188 5.89688V3.41142C9.54032 3.21186 10.3827 2.91234 11.1822 2.51888C11.4834 2.37003 11.7763 2.20814 12.061 2.0332C12.5258 2.30231 13.0077 2.54068 13.5037 2.74678C14.096 2.9929 14.7058 3.19444 15.3281 3.34973V5.89692C15.3281 7.13555 14.9243 8.36278 14.1603 9.44592C13.6074 10.2298 12.8693 10.9363 12 11.5181Z" fill="#FDDD5A"/>
<path d="M13.5037 2.74678C13.0078 2.54069 12.5258 2.30232 12.061 2.0332C11.8387 2.16986 11.6107 2.2987 11.3771 2.41973C11.6128 2.53589 11.8529 2.64491 12.0975 2.74678C12.6897 2.9929 13.2996 3.19444 13.9219 3.34973V5.89692C13.9219 7.13555 13.518 8.36278 12.754 9.44592C12.3402 10.0258 11.85 10.5473 11.2969 10.9964C11.5201 11.1794 11.7545 11.3533 12 11.5181C12.8693 10.9363 13.6074 10.2298 14.1603 9.44592C14.9243 8.36278 15.3281 7.13555 15.3281 5.89688V3.34973C14.7058 3.19444 14.096 2.99289 13.5037 2.74678Z" fill="#FED030"/>
<path d="M18.6627 12.8483L18.0615 9.82111C18.0395 9.7105 18.04 9.59661 18.0629 9.48619C18.0858 9.37578 18.1307 9.2711 18.1949 9.17838C18.2591 9.08566 18.3413 9.00679 18.4365 8.94646C18.5318 8.88612 18.6382 8.84556 18.7495 8.82717C18.9495 8.79412 19.1548 8.83443 19.3275 8.94067C19.5002 9.04692 19.6287 9.21196 19.6894 9.40542L20.8306 13.0431C21.015 13.6309 21.0013 14.263 20.7916 14.8422L19.9563 17.1499C19.7782 17.642 19.4663 18.0746 19.0558 18.3991L18.5351 18.8107C18.3628 18.9469 18.2248 19.1215 18.1321 19.3207C18.0394 19.5198 17.9947 19.7379 18.0015 19.9575L18.0445 21.3469L14.2305 21.408L18.6627 12.8483Z" fill="#FDD8AE"/>
<path d="M20.8306 13.0431L19.6894 9.40542C19.6288 9.21196 19.5002 9.04692 19.3275 8.94067C19.1548 8.83443 18.9496 8.79412 18.7495 8.82717C18.6755 8.83968 18.6034 8.86206 18.5352 8.89374C18.642 8.94272 18.7374 9.01357 18.8151 9.10171C18.8928 9.18985 18.9511 9.29332 18.9863 9.40542L20.1275 13.0431C20.3119 13.6309 20.2982 14.263 20.0885 14.8422L19.2532 17.1499C19.0751 17.642 18.7632 18.0746 18.3527 18.3991L17.832 18.8107C17.6597 18.9469 17.5216 19.1216 17.429 19.3207C17.3363 19.5198 17.2916 19.7379 17.2984 19.9575L17.3414 21.3469L14.2364 21.3966L14.2305 21.408L18.0445 21.3469L18.0015 19.9575C17.9947 19.7379 18.0394 19.5198 18.1321 19.3207C18.2248 19.1216 18.3628 18.9469 18.5351 18.8107L19.0558 18.3991C19.4663 18.0746 19.7782 17.642 19.9563 17.1499L20.7917 14.8423C21.0013 14.263 21.015 13.6309 20.8306 13.0431H20.8306Z" fill="#FBBF7D"/>
<path d="M14.0601 21.3594L13.7977 19.137C13.7617 18.8319 13.7928 18.5227 13.8888 18.2308C13.9847 17.939 14.1433 17.6717 14.3533 17.4475L18.6626 12.8486C18.9421 12.9981 19.1508 13.2525 19.2428 13.5558C19.3348 13.8592 19.3026 14.1867 19.1531 14.4662L18.1571 16.3296" fill="#FDD8AE"/>
<path d="M17.6567 16.3296C17.8079 16.3296 17.9562 16.2885 18.0858 16.2108C18.2154 16.1331 18.3215 16.0217 18.3928 15.8884L19.1529 14.4662C19.3024 14.1866 19.3346 13.8592 19.2426 13.5558C19.1506 13.2525 18.9419 12.9981 18.6624 12.8486L18.4556 13.0693C18.6323 13.2512 18.7467 13.4845 18.7821 13.7356C18.8175 13.9867 18.7722 14.2425 18.6527 14.4662L17.6567 16.3296Z" fill="#FBBF7D"/>
<path d="M19.4187 23.237L13.1482 24L12.9687 22.1508L12.8894 21.4903C12.8685 21.3135 12.9185 21.1356 13.0287 20.9958C13.1388 20.8559 13.3 20.7655 13.4768 20.7445L18.3724 20.1572C18.5492 20.1359 18.7272 20.1856 18.8673 20.2955C19.0074 20.4054 19.0981 20.5664 19.1196 20.7431L19.1932 21.3586L19.4187 23.237Z" fill="#2370B5"/>
<path d="M16.9662 20.3267C17.1429 20.3054 17.3209 20.3551 17.461 20.465C17.6012 20.5749 17.6919 20.7359 17.7134 20.9126L17.787 21.5281L18.0127 23.4081L19.4187 23.237L19.1932 21.3586L19.1196 20.7431C19.0982 20.5664 19.0074 20.4054 18.8673 20.2955C18.7272 20.1856 18.5492 20.1359 18.3724 20.1572L13.4768 20.7445C13.4716 20.7451 13.4666 20.7464 13.4614 20.7471L16.9662 20.3267Z" fill="#1067AE"/>
<path d="M19.1932 21.3586V21.359L12.9687 22.1508L12.8894 21.4903C12.8685 21.3135 12.9185 21.1356 13.0287 20.9958C13.1388 20.8559 13.3 20.7655 13.4768 20.7445L18.3724 20.1572C18.5492 20.1359 18.7272 20.1856 18.8673 20.2955C19.0074 20.4054 19.0981 20.5664 19.1196 20.7431L19.1932 21.3586Z" fill="#1067AE"/>
<path d="M19.1194 20.7431C19.0979 20.5664 19.0072 20.4054 18.8671 20.2955C18.727 20.1856 18.549 20.1359 18.3722 20.1572L13.4766 20.7445C13.4514 20.7476 13.4265 20.7521 13.4019 20.758L16.9659 20.3304C17.1427 20.3091 17.3207 20.3589 17.4608 20.4687C17.6009 20.5786 17.6917 20.7396 17.7131 20.9164L17.7867 21.5318V21.5323L19.193 21.359V21.3586L19.1194 20.7431Z" fill="#0A56A4"/>
<path d="M5.34573 12.8483L5.9469 9.82111C5.96887 9.7105 5.96838 9.59661 5.94545 9.48619C5.92253 9.37578 5.87764 9.2711 5.81345 9.17838C5.74927 9.08566 5.6671 9.00679 5.57183 8.94646C5.47656 8.88612 5.37013 8.84556 5.25887 8.82717C5.05882 8.79412 4.85357 8.83443 4.68088 8.94067C4.50818 9.04692 4.37967 9.21196 4.31898 9.40542L3.17776 13.0431C2.99338 13.6309 3.00708 14.263 3.21676 14.8422L4.05208 17.1499C4.23018 17.642 4.54205 18.0746 4.95259 18.3991L5.47328 18.8107C5.6456 18.9469 5.78362 19.1215 5.87628 19.3207C5.96894 19.5198 6.01366 19.7379 6.00686 19.9575L5.96383 21.3469L9.7779 21.408L5.34573 12.8483Z" fill="#FDD8AE"/>
<path d="M5.47328 18.8107L4.95264 18.3991C4.54208 18.0746 4.2302 17.642 4.05208 17.1499L3.21677 14.8423C3.00708 14.263 2.99338 13.6309 3.17777 13.0431L4.31899 9.40542C4.37967 9.21196 4.50818 9.04693 4.68086 8.94068C4.85355 8.83444 5.05879 8.79413 5.25883 8.82717C5.33294 8.83966 5.40504 8.86205 5.47319 8.89373C5.36638 8.94271 5.27105 9.01356 5.19335 9.1017C5.11565 9.18984 5.05731 9.29331 5.02211 9.40542L3.88089 13.0431C3.69651 13.6309 3.71022 14.263 3.91989 14.8422L4.75521 17.1499C4.93332 17.642 5.2452 18.0746 5.65577 18.3991L6.17641 18.8107C6.34872 18.9469 6.48674 19.1216 6.5794 19.3207C6.67206 19.5198 6.71678 19.7379 6.70999 19.9574L6.66696 21.3469L9.77205 21.3966L9.77791 21.408L5.96383 21.3469L6.00686 19.9574" fill="#FBBF7D"/>
<path d="M9.9481 21.3594L10.2104 19.137C10.2464 18.8319 10.2153 18.5227 10.1194 18.2308C10.0234 17.939 9.86485 17.6717 9.6548 17.4475L5.34558 12.8486C5.06603 12.9981 4.8573 13.2525 4.76531 13.5558C4.67332 13.8592 4.70559 14.1867 4.85503 14.4662L5.85103 16.3296" fill="#FDD8AE"/>
<path d="M6.35122 16.3296C6.20008 16.3296 6.05179 16.2885 5.92216 16.2108C5.79253 16.1331 5.68643 16.0217 5.61519 15.8884L4.85501 14.4662C4.70559 14.1866 4.67332 13.8592 4.76531 13.5558C4.85731 13.2525 5.06602 12.9981 5.34556 12.8486L5.55237 13.0693C5.37565 13.2512 5.26132 13.4845 5.22589 13.7356C5.19045 13.9867 5.23576 14.2425 5.35526 14.4662L6.35122 16.3296Z" fill="#FBBF7D"/>
<path d="M4.58936 23.2388L10.8601 24L11.0396 22.1508L11.1189 21.4903C11.1398 21.3135 11.0898 21.1356 10.9796 20.9958C10.8695 20.8559 10.7083 20.7655 10.5315 20.7445L5.63589 20.1572C5.45912 20.1359 5.28112 20.1856 5.14102 20.2955C5.00091 20.4054 4.91016 20.5664 4.8887 20.7431L4.81511 21.3586L4.58936 23.2388Z" fill="#2370B5"/>
<path d="M10.5318 20.7445L5.63621 20.1571C5.47418 20.1377 5.31063 20.178 5.17627 20.2707L9.12558 20.7445C9.30236 20.7655 9.46354 20.8559 9.57368 20.9957C9.68383 21.1356 9.73391 21.3135 9.71293 21.4902L9.63371 22.1507L9.48849 23.8334L10.8604 23.9999L11.04 22.1507L11.1192 21.4902C11.1402 21.3135 11.0901 21.1356 10.9799 20.9957C10.8698 20.8559 10.7086 20.7655 10.5318 20.7445Z" fill="#1067AE"/>
<path d="M4.81543 21.3586V21.359L11.04 22.1508L11.1192 21.4903C11.1402 21.3135 11.0901 21.1356 10.9799 20.9958C10.8698 20.8559 10.7086 20.7655 10.5318 20.7445L5.63621 20.1572C5.45944 20.1359 5.28145 20.1856 5.14134 20.2955C5.00124 20.4054 4.91048 20.5664 4.88902 20.7431L4.81543 21.3586Z" fill="#1067AE"/>
<path d="M10.5314 20.7446L9.21729 20.5869C9.37938 20.6233 9.52221 20.7185 9.61818 20.8541C9.71415 20.9897 9.75643 21.1561 9.73685 21.3211L9.65843 21.9751L11.0395 22.1508L11.1187 21.4903C11.1397 21.3136 11.0896 21.1357 10.9795 20.9958C10.8693 20.856 10.7082 20.7656 10.5314 20.7446Z" fill="#0A56A4"/>
<path d="M10.5655 20.3956L10.4099 20.3769L10.5516 19.1778C10.5938 18.8219 10.5577 18.4611 10.4456 18.1206C10.3336 17.7801 10.1484 17.4683 9.90305 17.207L5.7173 12.7398L6.28355 9.88956C6.31471 9.73265 6.31397 9.57107 6.28139 9.41445C6.24881 9.25782 6.18505 9.10936 6.0939 8.97789C6.00276 8.84641 5.88609 8.73463 5.75085 8.64918C5.6156 8.56373 5.46455 8.50636 5.30668 8.4805C5.24256 8.47006 5.17771 8.46478 5.11275 8.4647C4.85872 8.46401 4.61115 8.54479 4.40642 8.69519C4.20169 8.84559 4.05058 9.05767 3.97529 9.3003L2.83444 12.938C2.62781 13.5994 2.64315 14.3103 2.87813 14.9622L3.71344 17.2699C3.91387 17.8235 4.2647 18.3101 4.7265 18.6752L5.24719 19.0867C5.35737 19.1743 5.449 19.283 5.51672 19.4064C5.58445 19.5298 5.62691 19.6655 5.64164 19.8055C5.37652 19.7811 5.11232 19.861 4.90513 20.0282C4.69794 20.1954 4.56405 20.4368 4.53188 20.7011L4.45829 21.3146L4.45819 21.3149V21.3153L4.27294 22.8591C4.26231 22.9514 4.28868 23.0442 4.34628 23.1172C4.40388 23.1901 4.48803 23.2373 4.58031 23.2483C4.6726 23.2594 4.76552 23.2335 4.83874 23.1762C4.91196 23.119 4.95954 23.0351 4.97105 22.9428L5.11383 21.7527L10.6411 22.4556L10.5031 23.6066C10.4969 23.6527 10.5 23.6996 10.5122 23.7445C10.5243 23.7895 10.5452 23.8315 10.5738 23.8683C10.6023 23.9051 10.6378 23.9358 10.6783 23.9587C10.7188 23.9817 10.7635 23.9963 10.8097 24.0019C10.8559 24.0074 10.9027 24.0037 10.9475 23.991C10.9923 23.9783 11.0341 23.9569 11.0705 23.9279C11.1069 23.8989 11.1372 23.863 11.1596 23.8222C11.182 23.7815 11.1961 23.7366 11.2011 23.6904L11.3804 22.1964L11.3806 22.1952L11.3806 22.1938L11.4601 21.5324C11.476 21.399 11.4655 21.2638 11.4291 21.1345C11.3928 21.0052 11.3313 20.8843 11.2483 20.7788C11.1652 20.6732 11.0622 20.585 10.945 20.5193C10.8279 20.4535 10.699 20.4115 10.5656 20.3956H10.5655ZM5.16263 18.1237C4.8034 17.8397 4.53048 17.4611 4.37452 17.0305L3.53921 14.7227C3.35647 14.2158 3.34454 13.663 3.50522 13.1486L4.64616 9.51086C4.67702 9.4113 4.73899 9.32425 4.82297 9.26251C4.90696 9.20077 5.00852 9.16759 5.11275 9.16783C5.13976 9.16788 5.16672 9.17007 5.19338 9.17439C5.25814 9.18505 5.3201 9.20863 5.37556 9.24372C5.43103 9.27881 5.47887 9.3247 5.51623 9.37866C5.5536 9.43262 5.57973 9.49354 5.59307 9.55781C5.60641 9.62207 5.60668 9.68836 5.59388 9.75273L5.02219 12.6303C4.70931 12.8459 4.48684 13.1692 4.39732 13.5385C4.3078 13.9077 4.35751 14.297 4.53694 14.6319L5.53304 16.4952C5.577 16.5774 5.65183 16.6388 5.74107 16.6659C5.78525 16.6793 5.83164 16.6838 5.87759 16.6793C5.92354 16.6748 5.96815 16.6612 6.00886 16.6395C6.04958 16.6177 6.08561 16.5881 6.1149 16.5524C6.14418 16.5167 6.16615 16.4756 6.17955 16.4314C6.19295 16.3873 6.19751 16.3409 6.19298 16.2949C6.18845 16.249 6.17491 16.2044 6.15314 16.1636L5.15696 14.3002C5.09114 14.1784 5.05678 14.0421 5.05697 13.9036C5.05671 13.6845 5.14166 13.4739 5.29388 13.3163L9.38996 17.6877C9.5652 17.8744 9.69748 18.0971 9.77752 18.3403C9.85757 18.5835 9.88344 18.8412 9.85332 19.0955L9.7118 20.2931L6.35011 19.8898C6.34603 19.6288 6.2841 19.3719 6.16878 19.1376C6.05347 18.9033 5.88763 18.6976 5.68322 18.5351L5.16263 18.1237ZM10.7619 21.4487L10.7249 21.7574L5.1976 21.0545L5.22994 20.7849C5.24038 20.7007 5.28373 20.6242 5.3505 20.572C5.41726 20.5198 5.502 20.4961 5.58615 20.5063L5.94436 20.5493H5.9446L10.4818 21.0937C10.566 21.1036 10.6428 21.1466 10.6954 21.2131C10.7479 21.2797 10.7719 21.3644 10.7619 21.4487ZM15.5968 10.4594C16.5711 9.07806 17.086 7.50048 17.086 5.89703V2.20033C17.086 2.11635 17.056 2.03514 17.0013 1.9714C16.9466 1.90767 16.8709 1.86561 16.7879 1.85284C15.8921 1.71586 15.0162 1.47118 14.179 1.12412C13.4955 0.841052 12.8444 0.485404 12.2368 0.0632966C12.1761 0.020869 12.1034 -0.00126582 12.0293 5.59304e-05C11.9553 0.00137768 11.8835 0.0260883 11.8243 0.070656C11.3787 0.404859 10.9031 0.696957 10.4036 0.943187C9.40245 1.4324 8.32691 1.75165 7.221 1.88786C7.1362 1.89874 7.05827 1.94016 7.00179 2.00435C6.94531 2.06854 6.91416 2.15111 6.91416 2.23661V5.89708C6.91416 7.50053 7.42908 9.07811 8.40338 10.4594C9.2475 11.6561 10.4324 12.6977 11.8298 13.4715C11.8819 13.5004 11.9405 13.5155 12.0001 13.5155C12.0597 13.5155 12.1183 13.5004 12.1704 13.4715C13.5678 12.6977 14.7527 11.6561 15.5968 10.4594V10.4594ZM12.0001 12.76C10.7691 12.0485 9.72699 11.1161 8.97793 10.0541C8.08777 8.79212 7.61729 7.35456 7.61729 5.89712V2.54181C8.6932 2.37888 9.73787 2.05237 10.7151 1.57361C11.178 1.34519 11.622 1.08039 12.043 0.781703C12.632 1.17081 13.2569 1.50284 13.909 1.7733C14.705 2.10358 15.5345 2.34659 16.3829 2.49808V5.89712C16.3829 7.35461 15.9124 8.79212 15.0223 10.0541C14.2732 11.1161 13.2311 12.0485 12.0001 12.76V12.76ZM15.6798 3.34998C15.6798 3.27158 15.6536 3.19542 15.6053 3.13363C15.557 3.07183 15.4895 3.02794 15.4134 3.00892C14.8082 2.85777 14.215 2.66173 13.6388 2.42242C13.1571 2.22215 12.689 1.99063 12.2375 1.72933C12.1826 1.69751 12.1201 1.68113 12.0566 1.68194C11.9932 1.68275 11.9311 1.70071 11.8771 1.73392C11.6009 1.9035 11.3171 2.06033 11.0266 2.20394C10.2513 2.58515 9.43458 2.87549 8.59266 3.06916C8.51526 3.08708 8.44621 3.13069 8.39677 3.19288C8.34733 3.25507 8.32042 3.33218 8.32041 3.41162V5.89712C8.32041 7.20869 8.74646 8.506 9.55252 9.64881C10.1327 10.4714 10.8904 11.1986 11.8045 11.8105C11.8624 11.8492 11.9305 11.8699 12.0001 11.8699C12.0697 11.8699 12.1378 11.8492 12.1957 11.8105C13.1098 11.1986 13.8675 10.4714 14.4477 9.64881C15.2537 8.506 15.6798 7.20869 15.6798 5.89712V3.34998ZM14.9767 5.89712C14.9767 7.06281 14.5951 8.21997 13.8731 9.24353C13.3569 9.96021 12.7237 10.5849 12.0001 11.0914C11.2765 10.5849 10.6433 9.96021 10.1271 9.24353C9.40515 8.21997 9.02354 7.06281 9.02354 5.89712V3.68781C9.8226 3.48449 10.5983 3.19843 11.338 2.83427C11.5855 2.712 11.8283 2.58072 12.0661 2.4407C12.488 2.67555 12.9229 2.8862 13.3687 3.07164C13.8924 3.28916 14.4295 3.47284 14.9767 3.62153V5.89712ZM21.1658 12.9382L20.0249 9.3002C19.9335 9.00895 19.734 8.76381 19.4673 8.61523C19.2007 8.46665 18.8872 8.42595 18.5915 8.50149C18.2957 8.57703 18.0402 8.76308 17.8774 9.02133C17.7147 9.27959 17.6572 9.5904 17.7166 9.8898L18.2829 12.7398L14.0971 17.207C13.8518 17.4684 13.6666 17.7802 13.5546 18.1207C13.4425 18.4612 13.4064 18.822 13.4486 19.178L13.5903 20.3769L13.4347 20.3956C13.3013 20.4115 13.1723 20.4535 13.0552 20.5193C12.9381 20.585 12.835 20.6732 12.752 20.7788C12.6689 20.8843 12.6075 21.0052 12.5711 21.1345C12.5348 21.2638 12.5243 21.399 12.5402 21.5324L12.6196 22.1939L12.6196 22.1953L12.6198 22.1964L12.7991 23.6904C12.8106 23.7826 12.8582 23.8665 12.9314 23.9238C13.0046 23.981 13.0975 24.0069 13.1898 23.9959C13.2821 23.9848 13.3663 23.9376 13.4239 23.8647C13.4815 23.7917 13.5078 23.6989 13.4972 23.6066L13.3591 22.4556L18.8864 21.7527L19.0291 22.9428C19.0407 23.0351 19.0882 23.119 19.1615 23.1762C19.2347 23.2335 19.3276 23.2594 19.4199 23.2483C19.5122 23.2373 19.5963 23.1901 19.6539 23.1172C19.7115 23.0442 19.7379 22.9514 19.7273 22.8591L19.542 21.3153V21.3149L19.542 21.3146L19.4684 20.7011C19.436 20.4369 19.3021 20.1956 19.0949 20.0284C18.8878 19.8612 18.6237 19.7813 18.3586 19.8055C18.3733 19.6656 18.4157 19.5299 18.4834 19.4065C18.5511 19.2831 18.6427 19.1744 18.7529 19.0868L19.2738 18.6751C19.7356 18.31 20.0864 17.8233 20.2868 17.2698L21.122 14.9623C21.357 14.3104 21.3724 13.5996 21.1658 12.9382ZM18.4141 20.5063C18.4982 20.4962 18.5829 20.5198 18.6497 20.572C18.7164 20.6242 18.7598 20.7008 18.7703 20.7849L18.8026 21.0545L13.2753 21.7574L13.2383 21.4486C13.2284 21.3644 13.2523 21.2797 13.3049 21.2131C13.3574 21.1466 13.4342 21.1036 13.5184 21.0937L18.0556 20.5493H18.0558L18.4141 20.5063ZM20.4609 14.7228L19.6256 17.0305C19.4697 17.461 19.1969 17.8396 18.8377 18.1236L18.3169 18.5352C18.1125 18.6976 17.9467 18.9034 17.8314 19.1376C17.7161 19.3719 17.6542 19.6288 17.6501 19.8898L14.2884 20.2931L14.1468 19.0956C14.1167 18.8414 14.1426 18.5836 14.2226 18.3404C14.3027 18.0972 14.435 17.8744 14.6102 17.6877L18.7063 13.3162C18.8586 13.4738 18.9435 13.6845 18.9432 13.9037C18.9434 14.0422 18.909 14.1785 18.8431 14.3004L17.847 16.1636C17.8031 16.2459 17.7936 16.3422 17.8206 16.4314C17.8477 16.5207 17.9091 16.5955 17.9913 16.6395C18.0736 16.6834 18.1699 16.6929 18.2591 16.6659C18.3484 16.6388 18.4232 16.5774 18.4672 16.4952L19.4632 14.6321C19.6426 14.2972 19.6924 13.9079 19.6029 13.5386C19.5134 13.1693 19.2909 12.8459 18.978 12.6303L18.4064 9.75297C18.3936 9.68868 18.3938 9.62247 18.4071 9.55827C18.4203 9.49407 18.4464 9.43319 18.4836 9.37924C18.5209 9.3253 18.5686 9.27939 18.6239 9.24424C18.6792 9.20909 18.7411 9.18542 18.8057 9.17462C18.8327 9.17018 18.8601 9.16791 18.8874 9.16783C18.9917 9.16757 19.0932 9.20073 19.1772 9.26245C19.2612 9.32416 19.3232 9.41118 19.354 9.51072L20.4951 13.1489C20.6557 13.6632 20.6437 14.216 20.4609 14.7228Z" fill="#3C3B41"/>
</g>
<defs>
<clipPath id="clip0_380_1007">
<rect width="24" height="24" fill="white"/>
</clipPath>
</defs>
</svg>
