<svg width="24" height="24" viewBox="0 0 24 24" fill="none" xmlns="http://www.w3.org/2000/svg">
<g clip-path="url(#clip0_380_1070)">
<path d="M1.58496 6.49219H22.3215V23.6484H1.58496V6.49219Z" fill="#FEF4D0"/>
<path d="M20.915 6.49219H22.3213V23.6484H20.915V6.49219Z" fill="#FEEA9D"/>
<path d="M11.4609 13.1777H3.44531C3.36765 13.1777 3.30469 13.2407 3.30469 13.3184V20.7715C3.30469 20.8491 3.36765 20.9121 3.44531 20.9121H11.4609C11.5386 20.9121 11.6016 20.8491 11.6016 20.7715V13.3184C11.6016 13.2407 11.5386 13.1777 11.4609 13.1777Z" fill="#52BBE9"/>
<path d="M3.30469 16.7637H11.6016V17.4668H3.30469V16.7637Z" fill="white"/>
<path d="M7.10156 13.1777H7.80469V20.9121H7.10156V13.1777Z" fill="white"/>
<path d="M20.5425 13.1777H14.1455C14.0678 13.1777 14.0049 13.2407 14.0049 13.3184V23.5076C14.0049 23.5852 14.0678 23.6482 14.1455 23.6482H20.5425C20.6202 23.6482 20.6832 23.5852 20.6832 23.5076V13.3184C20.6832 13.2407 20.6202 13.1777 20.5425 13.1777Z" fill="#F9B15E"/>
<path d="M20.542 13.1777H19.1357C19.173 13.1777 19.2088 13.1925 19.2352 13.2189C19.2616 13.2453 19.2764 13.2811 19.2764 13.3184V23.5076C19.2764 23.5449 19.2616 23.5806 19.2352 23.607C19.2088 23.6334 19.173 23.6482 19.1357 23.6482H20.542C20.5793 23.6482 20.6151 23.6334 20.6414 23.607C20.6678 23.5806 20.6826 23.5449 20.6826 23.5076V13.3184C20.6826 13.2811 20.6678 13.2453 20.6414 13.2189C20.6151 13.1925 20.5793 13.1777 20.542 13.1777Z" fill="#F9A242"/>
<path d="M19.3359 18.6562C19.2427 18.6562 19.1533 18.6192 19.0873 18.5533C19.0214 18.4873 18.9844 18.3979 18.9844 18.3047V16.8984C18.9844 16.8052 19.0214 16.7158 19.0873 16.6498C19.1533 16.5839 19.2427 16.5469 19.3359 16.5469C19.4292 16.5469 19.5186 16.5839 19.5845 16.6498C19.6505 16.7158 19.6875 16.8052 19.6875 16.8984V18.3047C19.6875 18.3979 19.6505 18.4873 19.5845 18.5533C19.5186 18.6192 19.4292 18.6562 19.3359 18.6562Z" fill="#E4EEF9"/>
<path d="M23.6484 6.23781L0.351562 6.23875L1.24219 1.76172H22.6641L23.6484 6.23781Z" fill="#ED4769"/>
<path d="M22.6641 1.76172H21.2578L22.2422 6.23781L0.351562 6.23875L23.6484 6.23781L22.6641 1.76172Z" fill="#EB304A"/>
<path d="M0.351562 6.23877H3.67969V7.47252C3.67969 7.69105 3.63665 7.90744 3.55302 8.10933C3.46939 8.31122 3.34682 8.49467 3.19229 8.64919C3.03777 8.80371 2.85433 8.92629 2.65243 9.00991C2.45054 9.09354 2.23415 9.13658 2.01562 9.13658C1.57429 9.13658 1.15103 8.96126 0.838955 8.64919C0.526883 8.33712 0.351563 7.91386 0.351562 7.47252V6.23877Z" fill="#E4EEF9"/>
<path d="M3.67969 6.23877H7.00781V7.47252C7.00781 7.91386 6.83249 8.33712 6.52042 8.64919C6.20835 8.96126 5.78509 9.13658 5.34375 9.13658C4.90241 9.13658 4.47915 8.96126 4.16708 8.64919C3.85501 8.33712 3.67969 7.91386 3.67969 7.47252V6.23877Z" fill="#ED4769"/>
<path d="M7.00781 6.23877H10.3359V7.47252C10.3359 7.91386 10.1606 8.33712 9.84855 8.64919C9.53647 8.96126 9.11321 9.13658 8.67188 9.13658C8.23054 9.13658 7.80728 8.96126 7.4952 8.64919C7.18313 8.33712 7.00781 7.91386 7.00781 7.47252V6.23877Z" fill="#E4EEF9"/>
<path d="M10.3271 6.23779H13.6552V7.47248C13.6552 7.69113 13.6121 7.90764 13.5285 8.10965C13.4448 8.31166 13.3221 8.4952 13.1675 8.64981C13.0129 8.80442 12.8294 8.92707 12.6274 9.01074C12.4254 9.09441 12.2088 9.13748 11.9902 9.13748C11.5486 9.13748 11.1251 8.96206 10.8129 8.64981C10.5006 8.33756 10.3252 7.91407 10.3252 7.47248V6.23779H10.3271Z" fill="#ED4769"/>
<path d="M13.6576 6.23779H16.9858V7.47248C16.9858 7.91407 16.8103 8.33756 16.4981 8.64981C16.1858 8.96206 15.7623 9.13748 15.3208 9.13748C14.8792 9.13748 14.4557 8.96206 14.1434 8.64981C13.8312 8.33756 13.6558 7.91407 13.6558 7.47248V6.23779H13.6576Z" fill="#E4EEF9"/>
<path d="M16.9882 6.23779H20.3163V7.47248C20.3163 7.91407 20.1409 8.33756 19.8287 8.64981C19.5164 8.96206 19.0929 9.13748 18.6513 9.13748C18.2097 9.13748 17.7862 8.96206 17.474 8.64981C17.1617 8.33756 16.9863 7.91407 16.9863 7.47248V6.23779H16.9882Z" fill="#ED4769"/>
<path d="M13.6553 6.23781L13.3271 1.76172H10.6553L10.3271 6.23781H13.6553Z" fill="#E4EEF9"/>
<path d="M7.00781 6.23781L7.94531 1.76172H10.6552L10.327 6.23781H7.00781Z" fill="#ED4769"/>
<path d="M20.3179 6.23779H23.646V7.47248C23.646 7.9135 23.471 8.3365 23.1595 8.64865C22.848 8.96081 22.4253 9.13661 21.9843 9.13748C21.5427 9.13748 21.1192 8.96206 20.8069 8.64981C20.4947 8.33756 20.3193 7.91407 20.3193 7.47248V6.23779H20.3179Z" fill="#E4EEF9"/>
<path d="M22.2422 6.23779V7.47248C22.2422 7.78943 22.1518 8.09981 21.9816 8.36717C21.8114 8.63454 21.5684 8.84778 21.2812 8.98186C21.5014 9.08455 21.7414 9.13767 21.9844 9.13748C22.426 9.13748 22.8495 8.96206 23.1617 8.64981C23.474 8.33756 23.6494 7.91407 23.6494 7.47248V6.23779H22.2422Z" fill="#D5E0F2"/>
<path d="M16.9834 6.23781L16.0459 1.76172H13.3271L13.6553 6.23781H16.9834Z" fill="#ED4769"/>
<path d="M19.3739 1.76172L20.3114 6.23781H16.9833L16.0458 1.76172H19.3739ZM4.61719 1.76172L3.67969 6.23781H7.00781L7.94531 1.76172H4.61719Z" fill="#E4EEF9"/>
<path d="M1.3877 0.351562H22.5232C22.5605 0.351562 22.5962 0.366378 22.6226 0.392751C22.649 0.419123 22.6638 0.454891 22.6638 0.492188V1.82484H1.24707V0.492188C1.24707 0.454891 1.26189 0.419123 1.28826 0.392751C1.31463 0.366378 1.3504 0.351563 1.3877 0.351562Z" fill="#F0728F"/>
<path d="M22.5229 0.351562H21.1167C21.154 0.351562 21.1898 0.366378 21.2161 0.392751C21.2425 0.419123 21.2573 0.454891 21.2573 0.492188V1.82484H22.6636V0.492188C22.6636 0.454891 22.6488 0.419123 22.6224 0.392751C22.596 0.366378 22.5602 0.351562 22.5229 0.351562Z" fill="#ED4769"/>
<path d="M23.6484 24H0.351562C0.258322 24 0.168901 23.963 0.10297 23.897C0.0370395 23.8311 0 23.7417 0 23.6484C0 23.5552 0.0370395 23.4658 0.10297 23.3998C0.168901 23.3339 0.258322 23.2969 0.351562 23.2969H23.6484C23.7417 23.2969 23.8311 23.3339 23.897 23.3998C23.963 23.4658 24 23.5552 24 23.6484C24 23.7417 23.963 23.8311 23.897 23.897C23.8311 23.963 23.7417 24 23.6484 24Z" fill="#787681"/>
<path d="M24 7.47234V6.23766C24 6.21276 23.9973 6.18793 23.992 6.16359L23.0156 1.72078V0.351562C23.0156 0.258322 22.9786 0.168901 22.9127 0.10297C22.8467 0.0370395 22.7573 0 22.6641 0L1.24688 0C1.15363 0 1.06421 0.0370395 0.998283 0.10297C0.932352 0.168901 0.895313 0.258322 0.895313 0.351562V1.70484L0.0075 6.16641V6.16969C0.00515625 6.18094 0.00375 6.19219 0.00234375 6.20391C0.00257772 6.20843 0.00257772 6.21297 0.00234375 6.2175V7.47C0.00247365 7.86635 0.119266 8.2539 0.338159 8.58432C0.557053 8.91475 0.868364 9.17343 1.23328 9.32812V23.2969H0.351562C0.258322 23.2969 0.168901 23.3339 0.10297 23.3998C0.0370395 23.4658 0 23.5552 0 23.6484C0 23.7417 0.0370395 23.8311 0.10297 23.897C0.168901 23.963 0.258322 24 0.351562 24H23.6484C23.7417 24 23.8311 23.963 23.897 23.897C23.963 23.8311 24 23.7417 24 23.6484C24 23.5552 23.963 23.4658 23.897 23.3998C23.8311 23.3339 23.7417 23.2969 23.6484 23.2969H22.673V9.3675C23.0616 9.22546 23.3972 8.96755 23.6345 8.62862C23.8719 8.2897 23.9994 7.8861 24 7.47234ZM23.2111 5.88609H20.5969L19.8066 2.11313H22.3814L23.2111 5.88609ZM14.0091 6.58922H16.6364V7.47187C16.6364 7.82028 16.498 8.15442 16.2516 8.40078C16.0053 8.64714 15.6711 8.78555 15.3227 8.78555C14.9743 8.78555 14.6402 8.64714 14.3938 8.40078C14.1475 8.15442 14.0091 7.82028 14.0091 7.47187V6.58922ZM13.9819 5.88609L13.7053 2.11266H15.7603L16.5506 5.88609H13.9819ZM16.4784 2.11266H19.0884L19.8787 5.88562H17.2687L16.4784 2.11266ZM17.3395 6.58922H19.9645V7.47234C19.9645 7.82044 19.8263 8.15428 19.5801 8.40042C19.334 8.64656 19.0001 8.78484 18.652 8.78484C18.3039 8.78484 17.9701 8.64656 17.724 8.40042C17.4778 8.15428 17.3395 7.82044 17.3395 7.47234V6.58922ZM1.59844 0.703125H22.3125V1.41H1.59844V0.703125ZM13.3059 6.58969V7.47234C13.3132 7.8151 13.186 8.14708 12.9517 8.39729C12.7173 8.64751 12.3944 8.7961 12.0519 8.81129C11.7094 8.82648 11.3745 8.70705 11.119 8.47856C10.8634 8.25007 10.7073 7.93064 10.6842 7.58859C10.6842 7.55016 10.6875 7.51125 10.6875 7.47234V6.58969H13.3059ZM10.7053 5.88656L10.9819 2.11313H13.0003L13.2769 5.88656H10.7053ZM4.11234 5.88656L4.90266 2.11266H7.51266L6.72234 5.88609L4.11234 5.88656ZM6.65625 6.58969V7.47234C6.65625 7.82044 6.51797 8.15428 6.27183 8.40042C6.02569 8.64656 5.69185 8.78484 5.34375 8.78484C4.99565 8.78484 4.66181 8.64656 4.41567 8.40042C4.16953 8.15428 4.03125 7.82044 4.03125 7.47234V6.59016L6.65625 6.58969ZM7.35938 6.58969H9.97547V7.47234C9.97547 7.51125 9.97547 7.55016 9.97922 7.58859C9.94929 7.92529 9.7906 8.23746 9.53622 8.46007C9.28185 8.68268 8.95139 8.79856 8.61369 8.78358C8.276 8.76859 7.9571 8.6239 7.72344 8.37963C7.48978 8.13537 7.35937 7.81037 7.35938 7.47234V6.58969ZM7.44047 5.88656L8.23078 2.11313H10.2769L10.0003 5.88656H7.44047ZM1.53094 2.11313H4.18453L3.39422 5.88703H0.78L1.53094 2.11313ZM0.703125 7.47234V6.59016H3.32812V7.47234C3.32812 7.82044 3.18984 8.15428 2.9437 8.40042C2.69756 8.64656 2.36372 8.78484 2.01562 8.78484C1.66753 8.78484 1.33369 8.64656 1.08755 8.40042C0.841406 8.15428 0.703125 7.82044 0.703125 7.47234ZM20.3311 23.2969H14.3564V13.5295H20.3311V23.2969ZM21.9717 23.2969H21.0342V13.178C21.0342 13.0847 20.9972 12.9953 20.9312 12.9294C20.8653 12.8634 20.7759 12.8264 20.6827 12.8264H14.0048C13.9116 12.8264 13.8222 12.8634 13.7563 12.9294C13.6903 12.9953 13.6533 13.0847 13.6533 13.178V23.2969H1.93453V9.48609H2.01375C2.34178 9.48592 2.66481 9.40568 2.9548 9.25235C3.24479 9.09903 3.49297 8.87724 3.67781 8.60625C3.86283 8.87695 4.1111 9.09842 4.40108 9.25146C4.69105 9.4045 5.01399 9.48449 5.34188 9.48449C5.66976 9.48449 5.9927 9.4045 6.28267 9.25146C6.57265 9.09842 6.82092 8.87695 7.00594 8.60625C7.19057 8.87645 7.43821 9.09763 7.72747 9.25068C8.01673 9.40373 8.33891 9.48405 8.66616 9.4847C8.99342 9.48534 9.31591 9.4063 9.60577 9.25439C9.89563 9.10248 10.1441 8.88228 10.3298 8.61281C10.5154 8.88315 10.7641 9.10413 11.0544 9.2566C11.3447 9.40907 11.6678 9.48842 11.9956 9.48778C12.3235 9.48713 12.6463 9.4065 12.936 9.25289C13.2257 9.09928 13.4735 8.87731 13.658 8.60625C13.8429 8.87743 14.0913 9.09934 14.3815 9.25269C14.6717 9.40605 14.995 9.48621 15.3232 9.48621C15.6514 9.48621 15.9747 9.40605 16.2649 9.25269C16.5551 9.09934 16.8035 8.87743 16.9884 8.60625C17.1735 8.87695 17.4217 9.09842 17.7117 9.25146C18.0017 9.4045 18.3246 9.48449 18.6525 9.48449C18.9804 9.48449 19.3033 9.4045 19.5933 9.25146C19.8833 9.09842 20.1315 8.87695 20.3166 8.60625C20.5002 8.87563 20.7464 9.09646 21.0341 9.24978C21.3218 9.40311 21.6424 9.48436 21.9684 9.48656L21.9717 23.2969ZM21.9844 8.78578C21.6365 8.78516 21.303 8.64668 21.057 8.40067C20.811 8.15467 20.6725 7.82119 20.6719 7.47328V6.58922H23.2969V7.47234C23.2965 7.82041 23.1581 8.15413 22.9121 8.40034C22.6661 8.64655 22.3324 8.78516 21.9844 8.78578ZM19.3359 18.6562C19.4292 18.6562 19.5186 18.6192 19.5845 18.5533C19.6505 18.4874 19.6875 18.3979 19.6875 18.3047V16.8984C19.6875 16.8052 19.6505 16.7158 19.5845 16.6498C19.5186 16.5839 19.4292 16.5469 19.3359 16.5469C19.2427 16.5469 19.1533 16.5839 19.0873 16.6498C19.0214 16.7158 18.9844 16.8052 18.9844 16.8984V18.3047C18.9844 18.3979 19.0214 18.4874 19.0873 18.5533C19.1533 18.6192 19.2427 18.6562 19.3359 18.6562ZM11.6016 12.8264H3.30469C3.21145 12.8264 3.12203 12.8634 3.0561 12.9294C2.99016 12.9953 2.95312 13.0847 2.95312 13.178V20.9123C2.95312 21.0056 2.99016 21.095 3.0561 21.1609C3.12203 21.2269 3.21145 21.2639 3.30469 21.2639H11.6016C11.6948 21.2639 11.7842 21.2269 11.8502 21.1609C11.9161 21.095 11.9531 21.0056 11.9531 20.9123V13.178C11.9531 13.0847 11.9161 12.9953 11.8502 12.9294C11.7842 12.8634 11.6948 12.8264 11.6016 12.8264ZM7.10156 20.5608H3.65625V17.467H7.10156V20.5608ZM7.10156 16.7639H3.65625V13.5295H7.10156V16.7639ZM11.25 20.5608H7.80469V17.467H11.25V20.5608ZM11.25 16.7639H7.80469V13.5295H11.25V16.7639Z" fill="#18171C"/>
</g>
<defs>
<clipPath id="clip0_380_1070">
<rect width="24" height="24" fill="white"/>
</clipPath>
</defs>
</svg>
