<svg width="24" height="24" viewBox="0 0 24 24" fill="none" xmlns="http://www.w3.org/2000/svg">
<g clip-path="url(#clip0_380_994)">
<path d="M15.142 14.5699V22.0078H1.06934V1.75781C1.06934 1.38485 1.21749 1.02717 1.48122 0.763444C1.74494 0.499721 2.10263 0.351563 2.47559 0.351562H13.7358C14.1087 0.351563 14.4664 0.499721 14.7301 0.763444C14.9938 1.02717 15.142 1.38485 15.142 1.75781V14.5699Z" fill="#FF6666"/>
<path d="M13.7358 0.351562H11.6265C11.9994 0.351563 12.3571 0.499721 12.6208 0.763444C12.8846 1.02717 13.0327 1.38485 13.0327 1.75781V22.0078H15.1421V1.75781C15.1421 1.38485 14.9939 1.02717 14.7302 0.763444C14.4665 0.499721 14.1088 0.351563 13.7358 0.351562Z" fill="#FF4E4E"/>
<path d="M12.5196 2.46094H3.69238C3.4335 2.46094 3.22363 2.6708 3.22363 2.92969V8.41406C3.22363 8.67295 3.4335 8.88281 3.69238 8.88281H12.5196C12.7785 8.88281 12.9884 8.67295 12.9884 8.41406V2.92969C12.9884 2.6708 12.7785 2.46094 12.5196 2.46094Z" fill="white"/>
<path d="M8.10568 7.47656C8.50221 7.47656 8.82366 7.16176 8.82366 6.77344C8.82366 6.38511 8.50221 6.07031 8.10568 6.07031C7.70915 6.07031 7.3877 6.38511 7.3877 6.77344C7.3877 7.16176 7.70915 7.47656 8.10568 7.47656Z" fill="#FF6666"/>
<path d="M15.1571 22.0078H1.05469C0.666362 22.0078 0.351562 22.3226 0.351562 22.7109V22.9453C0.351562 23.3336 0.666362 23.6484 1.05469 23.6484H15.1571C15.5454 23.6484 15.8602 23.3336 15.8602 22.9453V22.7109C15.8602 22.3226 15.5454 22.0078 15.1571 22.0078Z" fill="#4A4F60"/>
<path d="M15.1572 22.0078H13.0479C13.2343 22.0078 13.4132 22.0819 13.545 22.2138C13.6769 22.3456 13.751 22.5245 13.751 22.7109V22.9453C13.751 23.1318 13.6769 23.3106 13.545 23.4425C13.4132 23.5744 13.2343 23.6484 13.0479 23.6484H15.1572C15.3437 23.6484 15.5225 23.5744 15.6544 23.4425C15.7863 23.3106 15.8604 23.1318 15.8604 22.9453V22.7109C15.8604 22.5245 15.7863 22.3456 15.6544 22.2138C15.5225 22.0819 15.3437 22.0078 15.1572 22.0078Z" fill="#3B3F4D"/>
<path d="M15.1421 5.08594H16.1562C16.2681 5.08594 16.3754 5.13038 16.4545 5.2095C16.5336 5.28862 16.5781 5.39592 16.5781 5.50781V8.46094C16.5781 8.57283 16.5336 8.68013 16.4545 8.75925C16.3754 8.83837 16.2681 8.88281 16.1562 8.88281H15.1421V5.08594Z" fill="#4A4F60"/>
<path d="M23.6482 8.44453V11.2266C23.6482 11.2943 23.6349 11.3614 23.609 11.4239C23.5831 11.4865 23.5452 11.5434 23.4973 11.5912C23.4494 11.6391 23.3925 11.6771 23.3299 11.703C23.2674 11.7289 23.2003 11.7422 23.1326 11.7422H22.2012C22.0644 11.7422 21.9333 11.6879 21.8366 11.5912C21.7399 11.4945 21.6855 11.3633 21.6855 11.2266V6.77344L23.433 8.02547C23.4996 8.07318 23.5539 8.13609 23.5913 8.20897C23.6287 8.28185 23.6482 8.3626 23.6482 8.44453Z" fill="#63EA86"/>
<path d="M23.433 8.02547L21.6855 6.77344V7.2772L22.7299 8.02547C22.7965 8.07318 22.8508 8.13609 22.8882 8.20897C22.9256 8.28185 22.9451 8.3626 22.9451 8.44453V11.2266C22.9451 11.2943 22.9318 11.3614 22.9059 11.4239C22.88 11.4865 22.842 11.5434 22.7941 11.5912C22.7462 11.6391 22.6894 11.6771 22.6268 11.703C22.5642 11.7289 22.4972 11.7422 22.4295 11.7422H23.1326C23.2003 11.7422 23.2674 11.7289 23.3299 11.703C23.3925 11.6771 23.4494 11.6391 23.4973 11.5912C23.5452 11.5434 23.5831 11.4865 23.609 11.4239C23.6349 11.3614 23.6482 11.2943 23.6482 11.2266V8.44453C23.6482 8.3626 23.6287 8.28185 23.5913 8.20897C23.5539 8.13609 23.4996 8.07318 23.433 8.02547Z" fill="#4FE777"/>
<path d="M10.9352 16.4347C10.9352 17.9649 9.66857 19.2053 8.10604 19.2053C6.54351 19.2053 5.27686 17.9649 5.27686 16.4347C5.27686 14.9045 8.10604 11.6851 8.10604 11.6851C8.10604 11.6851 10.9352 14.9045 10.9352 16.4347V16.4347Z" fill="#FFE966"/>
<path d="M8.10596 11.6851C8.10596 11.6851 7.62019 12.238 7.05127 12.9942C7.85546 14.0631 8.82577 15.5386 8.82577 16.4347C8.82577 17.5997 8.09124 18.596 7.05127 19.0055C7.38715 19.1378 7.74496 19.2056 8.10596 19.2053C9.66849 19.2053 10.9351 17.9649 10.9351 16.4347C10.9351 14.9045 8.10596 11.6851 8.10596 11.6851Z" fill="#FFE236"/>
<path d="M6.25055 4.41764C6.22061 4.38223 6.18397 4.35309 6.14273 4.33189C6.10149 4.3107 6.05646 4.29787 6.01025 4.29415C5.96403 4.29044 5.91753 4.2959 5.87343 4.31022C5.82933 4.32455 5.7885 4.34745 5.75329 4.37762C5.71808 4.4078 5.68919 4.44463 5.66827 4.48602C5.64736 4.5274 5.63484 4.57251 5.63143 4.61876C5.62803 4.665 5.6338 4.71146 5.64843 4.75546C5.66305 4.79946 5.68623 4.84014 5.71664 4.87514L6.17813 5.41373C6.20806 5.44915 6.2447 5.47829 6.28594 5.49948C6.32718 5.52068 6.37221 5.5335 6.41843 5.53722C6.46464 5.54094 6.51114 5.53548 6.55524 5.52115C6.59934 5.50683 6.64017 5.48392 6.67538 5.45375C6.71059 5.42358 6.73948 5.38674 6.7604 5.34536C6.78131 5.30397 6.79383 5.25886 6.79724 5.21262C6.80064 5.16638 6.79487 5.11992 6.78025 5.07591C6.76562 5.03191 6.74244 4.99124 6.71203 4.95623L6.25055 4.41764ZM5.62125 6.08288L4.91419 5.96077C4.86869 5.95291 4.82209 5.95409 4.77705 5.96424C4.73201 5.97439 4.68941 5.99331 4.65168 6.01993C4.61396 6.04654 4.58184 6.08033 4.55717 6.11936C4.5325 6.15838 4.51576 6.20189 4.5079 6.24738C4.50004 6.29288 4.50122 6.33948 4.51137 6.38452C4.52152 6.42956 4.54045 6.47216 4.56706 6.50989C4.59368 6.54762 4.62746 6.57973 4.66649 6.6044C4.70552 6.62907 4.74902 6.64581 4.79452 6.65367L5.50163 6.77578C5.54712 6.78364 5.59372 6.78245 5.63876 6.7723C5.6838 6.76214 5.7264 6.74322 5.76412 6.7166C5.80185 6.68998 5.83396 6.6562 5.85863 6.61717C5.8833 6.57814 5.90004 6.53464 5.90789 6.48914C5.91575 6.44364 5.91456 6.39705 5.90441 6.35201C5.89425 6.30697 5.87533 6.26437 5.84871 6.22664C5.82209 6.18892 5.78831 6.1568 5.74928 6.13214C5.71025 6.10747 5.66675 6.09073 5.62125 6.08288ZM8.10586 4.84411C8.1991 4.84411 8.28852 4.80707 8.35445 4.74114C8.42038 4.67521 8.45742 4.58579 8.45742 4.49255V3.78942C8.45742 3.69618 8.42038 3.60676 8.35445 3.54083C8.28852 3.4749 8.1991 3.43786 8.10586 3.43786C8.01262 3.43786 7.9232 3.4749 7.85727 3.54083C7.79134 3.60676 7.7543 3.69618 7.7543 3.78942V4.49255C7.7543 4.58579 7.79134 4.67521 7.85727 4.74114C7.9232 4.80707 8.01262 4.84411 8.10586 4.84411ZM8.10586 11.3337C8.05588 11.3337 8.00646 11.3443 7.96093 11.3649C7.91538 11.3855 7.87476 11.4156 7.84177 11.4532C7.54322 11.7929 4.92511 14.8188 4.92511 16.4348C4.92511 18.1564 6.35198 19.557 8.10586 19.557C9.85973 19.557 11.2866 18.1563 11.2866 16.4348C11.2866 14.8188 8.66845 11.7929 8.36995 11.4532C8.33696 11.4156 8.29634 11.3855 8.2508 11.3649C8.20526 11.3443 8.15585 11.3336 8.10586 11.3336V11.3337ZM10.5835 16.4348C10.5835 17.7687 9.47203 18.8538 8.10586 18.8538C6.73969 18.8538 5.62823 17.7687 5.62823 16.4348C5.62823 15.405 7.2277 13.2773 8.10492 12.2273C8.37122 12.5475 8.80397 13.0844 9.23377 13.6898C10.4081 15.3436 10.5835 16.1195 10.5835 16.4348ZM8.10586 5.71875C7.89789 5.72166 7.69543 5.78599 7.52392 5.90365C7.35242 6.02131 7.21952 6.18705 7.14195 6.38003C7.06438 6.57301 7.04559 6.78462 7.08795 6.98825C7.13031 7.19187 7.23192 7.37843 7.38002 7.52447C7.52811 7.67051 7.71607 7.7695 7.92027 7.80901C8.12448 7.84851 8.3358 7.82677 8.52767 7.7465C8.71955 7.66624 8.88341 7.53104 8.99866 7.3579C9.11391 7.18477 9.1754 6.98142 9.17541 6.77344C9.1731 6.49185 9.05921 6.22268 8.8587 6.02496C8.65819 5.82723 8.38745 5.71711 8.10586 5.71875ZM8.10586 7.125C8.03695 7.12214 7.9704 7.0991 7.91449 7.05873C7.85857 7.01836 7.81575 6.96245 7.79135 6.89794C7.76695 6.83344 7.76205 6.76318 7.77725 6.69591C7.79245 6.62864 7.82708 6.56732 7.87685 6.51957C7.92661 6.47183 7.98931 6.43976 8.05715 6.42735C8.125 6.41495 8.19499 6.42276 8.25843 6.4498C8.32187 6.47685 8.37596 6.52195 8.41398 6.57949C8.452 6.63703 8.47228 6.70447 8.47228 6.77344C8.47017 6.8686 8.43041 6.95904 8.36172 7.02494C8.29304 7.09084 8.20103 7.12682 8.10586 7.125ZM12.5195 2.10938H3.69225C3.47477 2.10962 3.26626 2.19613 3.11248 2.34991C2.95869 2.5037 2.87219 2.7122 2.87194 2.92969V8.41406C2.87219 8.63155 2.95869 8.84005 3.11248 8.99384C3.26626 9.14762 3.47477 9.23413 3.69225 9.23438H12.5195C12.737 9.23413 12.9455 9.14762 13.0992 8.99384C13.253 8.84005 13.3395 8.63155 13.3398 8.41406V2.92969C13.3395 2.7122 13.253 2.5037 13.0992 2.34991C12.9455 2.19613 12.737 2.10962 12.5195 2.10938ZM12.6367 8.41406C12.6366 8.44513 12.6243 8.47492 12.6023 8.49689C12.5803 8.51885 12.5505 8.53121 12.5195 8.53125H3.69225C3.66118 8.53121 3.6314 8.51885 3.60943 8.49689C3.58746 8.47492 3.5751 8.44513 3.57506 8.41406V2.92969C3.5751 2.89862 3.58746 2.86883 3.60943 2.84686C3.6314 2.8249 3.66118 2.81254 3.69225 2.8125H12.5195C12.5505 2.81254 12.5803 2.8249 12.6023 2.84686C12.6243 2.86883 12.6366 2.89862 12.6367 2.92969V8.41406ZM23.6379 7.73967L21.8907 6.48769L21.8905 6.48755L20.7239 5.65163C20.6864 5.62473 20.6439 5.6055 20.599 5.59501C20.554 5.58453 20.5074 5.58301 20.4619 5.59053C20.4163 5.59805 20.3727 5.61447 20.3335 5.63885C20.2943 5.66323 20.2603 5.6951 20.2334 5.73263C20.2065 5.77015 20.1872 5.81261 20.1768 5.85757C20.1663 5.90254 20.1647 5.94912 20.1723 5.99467C20.1798 6.04023 20.1962 6.08385 20.2206 6.12306C20.245 6.16226 20.2768 6.19628 20.3144 6.22317L21.3344 6.95405V11.2266C21.3346 11.4565 21.4261 11.6769 21.5886 11.8395C21.7512 12.002 21.9716 12.0935 22.2015 12.0938H22.3156V19.5763C22.3156 19.93 22.1751 20.2692 21.925 20.5193C21.6749 20.7694 21.3357 20.9099 20.982 20.9099C20.6283 20.9099 20.2891 20.7694 20.039 20.5193C19.7889 20.2692 19.6484 19.93 19.6484 19.5763V8.39062C19.6478 7.92458 19.4625 7.47778 19.1329 7.14824C18.8034 6.8187 18.3566 6.63333 17.8905 6.63281H16.9298V5.50781C16.9295 5.30276 16.848 5.10617 16.703 4.96117C16.558 4.81617 16.3614 4.73461 16.1563 4.73438H15.4937V1.75781C15.4932 1.29177 15.3078 0.844968 14.9783 0.515427C14.6488 0.185886 14.202 0.000521091 13.7359 0L2.4758 0C2.00976 0.000521091 1.56295 0.185886 1.23341 0.515427C0.90387 0.844968 0.718506 1.29177 0.717984 1.75781V21.7117C0.508916 21.7823 0.327237 21.9167 0.198462 22.096C0.0696874 22.2752 0.000284462 22.4902 0 22.7109L0 22.9453C0.000310178 23.2249 0.111528 23.493 0.309253 23.6907C0.506978 23.8885 0.775062 23.9997 1.05469 24H15.157C15.4367 23.9997 15.7047 23.8885 15.9025 23.6907C16.1002 23.493 16.2114 23.2249 16.2117 22.9453V22.7109C16.2114 22.4902 16.142 22.2752 16.0133 22.096C15.8845 21.9167 15.7028 21.7823 15.4937 21.7117V9.23438H16.1563C16.3614 9.23414 16.558 9.15258 16.703 9.00758C16.848 8.86258 16.9295 8.66599 16.9298 8.46094V7.33594H17.8905C18.1702 7.33625 18.4383 7.44747 18.636 7.64519C18.8337 7.84292 18.9449 8.111 18.9452 8.39062V19.5763C18.9452 20.1164 19.1598 20.6345 19.5418 21.0164C19.9237 21.3984 20.4418 21.613 20.982 21.613C21.5221 21.613 22.0402 21.3984 22.4221 21.0164C22.8041 20.6345 23.0187 20.1164 23.0187 19.5763V12.0938H23.1328C23.3627 12.0935 23.5832 12.0021 23.7457 11.8395C23.9083 11.6769 23.9998 11.4565 24 11.2266V8.44453C23.9998 8.30674 23.9669 8.17097 23.904 8.04841C23.841 7.92584 23.7498 7.82001 23.6379 7.73962V7.73967ZM1.42111 1.75781C1.42142 1.47819 1.53264 1.2101 1.73036 1.01238C1.92809 0.814653 2.19617 0.703435 2.4758 0.703125H13.7359C14.0155 0.703435 14.2836 0.814653 14.4814 1.01238C14.6791 1.2101 14.7903 1.47819 14.7906 1.75781V21.6562H1.42111V1.75781ZM15.5086 22.7109V22.9453C15.5085 23.0385 15.4715 23.1279 15.4056 23.1938C15.3397 23.2597 15.2503 23.2968 15.1571 23.2969H1.05469C0.961478 23.2968 0.872114 23.2597 0.806205 23.1938C0.740296 23.1279 0.703224 23.0385 0.703125 22.9453V22.7109C0.703224 22.6177 0.740296 22.5284 0.806205 22.4625C0.872114 22.3965 0.961478 22.3595 1.05469 22.3594H15.157C15.2502 22.3595 15.3396 22.3965 15.4055 22.4625C15.4714 22.5284 15.5085 22.6177 15.5086 22.7109H15.5086ZM16.2266 8.46094C16.2266 8.47958 16.2192 8.49745 16.206 8.51063C16.1928 8.52381 16.175 8.53123 16.1563 8.53125H15.4937V5.4375H16.1563C16.175 5.43752 16.1928 5.44494 16.206 5.45812C16.2192 5.4713 16.2266 5.48917 16.2266 5.50781V8.46094ZM23.2969 11.2266C23.2968 11.2701 23.2795 11.3118 23.2488 11.3425C23.218 11.3733 23.1763 11.3906 23.1328 11.3906H22.2015C22.1581 11.3906 22.1163 11.3733 22.0856 11.3425C22.0548 11.3118 22.0375 11.2701 22.0375 11.2266V10.5233L22.243 10.706C22.2774 10.7372 22.3177 10.7612 22.3614 10.7767C22.4052 10.7922 22.4516 10.7989 22.4979 10.7964C22.5443 10.7939 22.5897 10.7822 22.6315 10.7621C22.6733 10.7419 22.7108 10.7137 22.7416 10.679C22.7725 10.6443 22.7961 10.6038 22.8113 10.5599C22.8264 10.516 22.8327 10.4696 22.8298 10.4232C22.8268 10.3769 22.8148 10.3316 22.7942 10.29C22.7737 10.2483 22.7452 10.2111 22.7102 10.1806L22.0375 9.58237V7.45781L23.2283 8.31112C23.2495 8.32633 23.2668 8.34636 23.2787 8.36956C23.2906 8.39276 23.2968 8.41845 23.2969 8.44453V11.2266ZM11.2975 5.96077L10.5904 6.08288C10.5449 6.09073 10.5014 6.10748 10.4624 6.13215C10.4234 6.15682 10.3896 6.18893 10.363 6.22666C10.3364 6.26439 10.3174 6.30699 10.3073 6.35203C10.2971 6.39707 10.2959 6.44367 10.3038 6.48916C10.3117 6.53466 10.3284 6.57816 10.3531 6.61719C10.3777 6.65622 10.4099 6.69 10.4476 6.71662C10.4853 6.74323 10.5279 6.76216 10.573 6.77231C10.618 6.78246 10.6646 6.78364 10.7101 6.77578L11.4172 6.65367C11.509 6.63781 11.5909 6.58609 11.6446 6.5099C11.6984 6.43371 11.7197 6.33929 11.7038 6.24741C11.6879 6.15552 11.6362 6.0737 11.56 6.01995C11.4838 5.96619 11.3894 5.9449 11.2975 5.96077ZM10.4569 4.37944C10.4218 4.34939 10.3812 4.32655 10.3373 4.3122C10.2934 4.29786 10.2471 4.29231 10.2011 4.29586C10.1551 4.2994 10.1102 4.31198 10.069 4.33288C10.0278 4.35378 9.99117 4.38258 9.96112 4.41764L9.49964 4.95623C9.46923 4.99124 9.44605 5.03191 9.43143 5.07591C9.4168 5.11992 9.41103 5.16638 9.41443 5.21262C9.41784 5.25886 9.43036 5.30397 9.45127 5.34536C9.47219 5.38674 9.50108 5.42358 9.53629 5.45375C9.5715 5.48392 9.61233 5.50683 9.65643 5.52115C9.70053 5.53548 9.74703 5.54094 9.79325 5.53722C9.83946 5.5335 9.88449 5.52068 9.92573 5.49948C9.96697 5.47829 10.0036 5.44915 10.0335 5.41373L10.4951 4.87514C10.5557 4.80434 10.5858 4.71234 10.5786 4.61938C10.5715 4.52642 10.5277 4.44011 10.4569 4.37944Z" fill="#272A33"/>
</g>
<defs>
<clipPath id="clip0_380_994">
<rect width="24" height="24" fill="white"/>
</clipPath>
</defs>
</svg>
