<svg width="24" height="24" viewBox="0 0 24 24" fill="none" xmlns="http://www.w3.org/2000/svg">
<path d="M18.5145 8.96039C18.5144 8.90928 18.5034 8.85879 18.4824 8.81219C18.4614 8.76559 18.4309 8.72393 18.3927 8.68991C18.3544 8.65606 18.3094 8.63066 18.2606 8.61535C18.2118 8.60004 18.1603 8.59517 18.1095 8.60105L5.79557 10.051C5.70741 10.0614 5.62614 10.1038 5.56716 10.1701C5.50819 10.2365 5.4756 10.3222 5.47559 10.411V13.6731C5.47559 15.1037 9.57671 15.4856 12 15.4856C14.4231 15.4856 18.5244 15.1037 18.5244 13.6731V13.6724L18.5145 8.96039Z" fill="#0B4870"/>
<path d="M18.5148 10.0483H11.9902V15.4853L12.0002 15.4854C14.3601 15.4854 18.3095 15.1228 18.5148 13.7827V10.0483V10.0483Z" fill="#0B4870"/>
<path d="M22.8038 6.95879L13.528 3.77843C12.5425 3.44039 11.4572 3.44039 10.4717 3.77843L1.19618 6.95879C0.749897 7.11167 0.460938 7.51535 0.460938 7.98743C0.460938 8.45927 0.749837 8.86301 1.19618 9.01589L10.4718 12.1961C10.9637 12.3643 11.48 12.45 11.9999 12.4496C12.5198 12.45 13.0361 12.3644 13.528 12.1961L22.8039 9.01589C23.2503 8.86301 23.5388 8.45933 23.5388 7.98743C23.5387 7.51535 23.2502 7.11167 22.8038 6.95879Z" fill="#0E538C"/>
<path d="M18.8769 15.8477C18.8293 15.8477 18.7821 15.8384 18.7382 15.8202C18.6942 15.8019 18.6542 15.7752 18.6206 15.7416C18.5869 15.7079 18.5602 15.668 18.542 15.624C18.5238 15.58 18.5144 15.5329 18.5145 15.4853V10.7491C18.5145 10.6735 18.4908 10.5999 18.4469 10.5384C18.403 10.4769 18.341 10.4306 18.2695 10.4061L11.8725 8.21291C11.7815 8.1817 11.7067 8.11568 11.6644 8.02935C11.6221 7.94302 11.6158 7.84344 11.6469 7.75247C11.7121 7.56311 11.9178 7.46177 12.1075 7.52723L18.5045 9.72053C18.7189 9.79401 18.905 9.93266 19.0368 10.1171C19.1685 10.3015 19.2394 10.5225 19.2394 10.7492V15.4853C19.2394 15.5329 19.23 15.5801 19.2118 15.624C19.1936 15.668 19.1669 15.708 19.1332 15.7416C19.0995 15.7753 19.0596 15.802 19.0156 15.8202C18.9716 15.8384 18.9245 15.8477 18.8769 15.8477V15.8477Z" fill="#2A94F4"/>
<path d="M19.2397 18.3854H18.5148C18.4672 18.3854 18.4201 18.376 18.3761 18.3578C18.3321 18.3396 18.2921 18.3129 18.2585 18.2792C18.2248 18.2455 18.1981 18.2056 18.1799 18.1616C18.1617 18.1176 18.1523 18.0705 18.1523 18.0228V15.848C18.1523 15.4476 18.4768 15.123 18.8772 15.123C19.2777 15.123 19.6021 15.4476 19.6021 15.848V18.0228C19.6021 18.0704 19.5928 18.1176 19.5746 18.1616C19.5564 18.2055 19.5297 18.2455 19.496 18.2792C19.4624 18.3128 19.4224 18.3395 19.3784 18.3578C19.3345 18.376 19.2873 18.3854 19.2397 18.3854V18.3854Z" fill="#FFBE55"/>
<path d="M18.5146 12.8712C18.5172 12.8696 18.5203 12.8682 18.5228 12.8666L18.5207 11.8745C18.5203 11.8802 18.5156 11.8866 18.5146 11.8922V12.8712V12.8712Z" fill="#5C546A"/>
<path d="M12.0001 8.59877C12.8009 8.59877 13.45 8.27421 13.45 7.87385C13.45 7.47348 12.8009 7.14893 12.0001 7.14893C11.1994 7.14893 10.5503 7.47348 10.5503 7.87385C10.5503 8.27421 11.1994 8.59877 12.0001 8.59877Z" fill="#D3D3D3"/>
</svg>
