<svg width="24" height="24" viewBox="0 0 24 24" fill="none" xmlns="http://www.w3.org/2000/svg">
<path d="M20.25 13.979C20.25 13.5812 20.092 13.1996 19.8107 12.9183C19.5294 12.637 19.1478 12.479 18.75 12.479C19.1478 12.479 19.5294 12.321 19.8107 12.0397C20.092 11.7584 20.25 11.3768 20.25 10.979C20.25 11.3768 20.408 11.7584 20.6893 12.0397C20.9706 12.321 21.3522 12.479 21.75 12.479C21.3522 12.479 20.9706 12.637 20.6893 12.9183C20.408 13.1996 20.25 13.5812 20.25 13.979Z" fill="#FBBF61"/>
<path d="M20.25 14.2134C20.1878 14.2134 20.1282 14.1887 20.0843 14.1447C20.0403 14.1008 20.0156 14.0412 20.0156 13.979C20.0151 13.6435 19.8816 13.3219 19.6444 13.0846C19.4071 12.8474 19.0855 12.7139 18.75 12.7134C18.6878 12.7134 18.6282 12.6887 18.5843 12.6447C18.5403 12.6008 18.5156 12.5412 18.5156 12.479C18.5156 12.4168 18.5403 12.3572 18.5843 12.3133C18.6282 12.2693 18.6878 12.2446 18.75 12.2446C19.0856 12.2444 19.4074 12.111 19.6447 11.8737C19.882 11.6364 20.0154 11.3146 20.0156 10.979C20.0156 10.9168 20.0403 10.8572 20.0843 10.8133C20.1282 10.7693 20.1878 10.7446 20.25 10.7446C20.3122 10.7446 20.3718 10.7693 20.4157 10.8133C20.4597 10.8572 20.4844 10.9168 20.4844 10.979C20.4846 11.3146 20.618 11.6364 20.8553 11.8737C21.0926 12.111 21.4144 12.2444 21.75 12.2446C21.8122 12.2446 21.8718 12.2693 21.9157 12.3133C21.9597 12.3572 21.9844 12.4168 21.9844 12.479C21.9844 12.5412 21.9597 12.6008 21.9157 12.6447C21.8718 12.6887 21.8122 12.7134 21.75 12.7134C21.4145 12.7139 21.0929 12.8474 20.8556 13.0846C20.6184 13.3219 20.4849 13.6435 20.4844 13.979C20.4844 14.0412 20.4597 14.1008 20.4157 14.1447C20.3718 14.1887 20.3122 14.2134 20.25 14.2134ZM19.62 12.479C19.8809 12.6311 20.0979 12.8482 20.25 13.109C20.4021 12.8482 20.6191 12.6311 20.88 12.479C20.6191 12.3269 20.4021 12.1099 20.25 11.849C20.0979 12.1099 19.8809 12.3269 19.62 12.479V12.479Z" fill="#1A1A1A"/>
<path d="M6.72852 7.875C6.72852 7.47718 6.57048 7.09564 6.28918 6.81434C6.00787 6.53304 5.62634 6.375 5.22852 6.375C5.62634 6.375 6.00787 6.21696 6.28918 5.93566C6.57048 5.65436 6.72852 5.27282 6.72852 4.875C6.72852 5.27282 6.88655 5.65436 7.16786 5.93566C7.44916 6.21696 7.83069 6.375 8.22852 6.375C7.83069 6.375 7.44916 6.53304 7.16786 6.81434C6.88655 7.09564 6.72852 7.47718 6.72852 7.875Z" fill="#FBBF61"/>
<path d="M6.72852 8.10938C6.66636 8.10938 6.60674 8.08468 6.56279 8.04073C6.51883 7.99677 6.49414 7.93716 6.49414 7.875C6.49389 7.53941 6.36047 7.21764 6.12317 6.98034C5.88588 6.74305 5.5641 6.60962 5.22852 6.60938C5.16636 6.60938 5.10674 6.58468 5.06279 6.54073C5.01883 6.49677 4.99414 6.43716 4.99414 6.375C4.99414 6.31284 5.01883 6.25323 5.06279 6.20927C5.10674 6.16532 5.16636 6.14062 5.22852 6.14062C5.5641 6.14038 5.88588 6.00695 6.12317 5.76966C6.36047 5.53236 6.49389 5.21059 6.49414 4.875C6.49414 4.81284 6.51883 4.75323 6.56279 4.70927C6.60674 4.66532 6.66636 4.64062 6.72852 4.64062C6.79068 4.64062 6.85029 4.66532 6.89424 4.70927C6.9382 4.75323 6.96289 4.81284 6.96289 4.875C6.96339 5.21051 7.09689 5.53214 7.33413 5.76938C7.57137 6.00663 7.893 6.14013 8.22852 6.14062C8.29068 6.14062 8.35029 6.16532 8.39424 6.20927C8.4382 6.25323 8.46289 6.31284 8.46289 6.375C8.46289 6.43716 8.4382 6.49677 8.39424 6.54073C8.35029 6.58468 8.29068 6.60937 8.22852 6.60938C7.893 6.60987 7.57137 6.74337 7.33413 6.98062C7.09689 7.21786 6.96339 7.53949 6.96289 7.875C6.96289 7.93716 6.9382 7.99677 6.89424 8.04073C6.85029 8.08468 6.79068 8.10937 6.72852 8.10938V8.10938ZM6.09852 6.375C6.35937 6.52711 6.57641 6.74415 6.72852 7.005C6.88062 6.74415 7.09766 6.52711 7.35852 6.375C7.09766 6.22289 6.88062 6.00585 6.72852 5.745C6.57641 6.00585 6.35937 6.22289 6.09852 6.375Z" fill="#1A1A1A"/>
<path d="M16.4062 21.6636C16.406 21.774 16.384 21.8832 16.3414 21.985C16.2988 22.0869 16.2365 22.1793 16.1581 22.257C16.0797 22.3347 15.9867 22.3962 15.8845 22.4378C15.7823 22.4795 15.6729 22.5006 15.5625 22.4998H10.6809C10.506 22.5005 10.3353 22.4458 10.1934 22.3436C10.0514 22.2414 9.94544 22.0969 9.89062 21.9308C10.0715 21.8238 10.2439 21.7032 10.4062 21.5698C10.6731 21.3521 10.9099 21.0999 11.1103 20.8198H15.5625C15.7863 20.8198 16.0009 20.9087 16.1591 21.067C16.3174 21.2252 16.4062 21.4398 16.4062 21.6636V21.6636Z" fill="#FBBF61"/>
<path d="M15.5623 22.7345H10.6808C10.4563 22.7357 10.2372 22.6657 10.0551 22.5344C9.87298 22.4032 9.73721 22.2175 9.66735 22.0042C9.65087 21.9537 9.652 21.8992 9.67056 21.8494C9.68913 21.7997 9.72402 21.7578 9.76954 21.7304C9.94019 21.6296 10.1029 21.5158 10.2561 21.3901C10.5074 21.1858 10.7309 20.9494 10.9208 20.687C10.9426 20.6579 10.9709 20.6343 11.0035 20.618C11.036 20.6017 11.0719 20.5933 11.1083 20.5933H15.5623C15.7032 20.5933 15.8427 20.621 15.9728 20.6749C16.1029 20.7288 16.2211 20.8078 16.3207 20.9074C16.4203 21.007 16.4993 21.1252 16.5532 21.2553C16.6071 21.3855 16.6348 21.5249 16.6348 21.6658C16.6348 21.8066 16.6071 21.9461 16.5532 22.0762C16.4993 22.2063 16.4203 22.3245 16.3207 22.4241C16.2211 22.5237 16.1029 22.6027 15.9728 22.6566C15.8427 22.7105 15.7032 22.7383 15.5623 22.7383V22.7345ZM10.1933 22.0173C10.2489 22.0946 10.3221 22.1574 10.4069 22.2007C10.4917 22.2439 10.5856 22.2662 10.6808 22.2658H15.5623C15.7225 22.2658 15.876 22.2022 15.9893 22.0889C16.1025 21.9757 16.1661 21.8221 16.1661 21.662C16.1661 21.5019 16.1025 21.3483 15.9893 21.2351C15.876 21.1219 15.7225 21.0583 15.5623 21.0583H11.2283C11.0315 21.3151 10.8053 21.5479 10.5542 21.752C10.4392 21.8474 10.3187 21.936 10.1933 22.0173Z" fill="#1A1A1A"/>
<path d="M16.4063 19.9876C16.4043 20.2101 16.3145 20.4228 16.1565 20.5794C15.9985 20.736 15.785 20.8239 15.5625 20.8239H11.1104C11.1254 20.8014 11.145 20.7789 11.16 20.7564C11.2425 20.6354 11.3288 20.5117 11.401 20.3814C11.401 20.3814 11.401 20.3701 11.4085 20.3701C11.6132 19.9883 11.7581 19.5772 11.8379 19.1514H15.5625C15.785 19.1514 15.9985 19.2392 16.1565 19.3958C16.3145 19.5525 16.4043 19.7651 16.4063 19.9876V19.9876Z" fill="#E3B56C"/>
<path d="M15.5626 21.058H11.1104C11.0681 21.0579 11.0266 21.0464 10.9903 21.0246C10.954 21.0029 10.9243 20.9717 10.9043 20.9344C10.8843 20.8971 10.8748 20.8551 10.8767 20.8128C10.8787 20.7705 10.892 20.7296 10.9154 20.6943L10.9482 20.6493L10.9688 20.6249L10.9848 20.6015C11.0542 20.5002 11.1263 20.3952 11.1863 20.2893C11.1948 20.266 11.2069 20.2442 11.222 20.2246C11.4074 19.8713 11.5386 19.492 11.611 19.0996C11.6217 19.0464 11.6506 18.9986 11.6926 18.9644C11.7347 18.9302 11.7874 18.9117 11.8417 18.9121H15.5626C15.7063 18.9078 15.8494 18.9325 15.9834 18.9845C16.1174 19.0366 16.2396 19.115 16.3427 19.2152C16.4459 19.3153 16.5279 19.4351 16.5839 19.5675C16.6399 19.6999 16.6687 19.8422 16.6687 19.986C16.6687 20.1298 16.6399 20.2721 16.5839 20.4045C16.5279 20.5369 16.4459 20.6567 16.3427 20.7568C16.2396 20.857 16.1174 20.9354 15.9834 20.9875C15.8494 21.0395 15.7063 21.0641 15.5626 21.0599V21.058ZM11.5501 20.5893H15.5626C15.6441 20.5925 15.7254 20.5792 15.8016 20.5502C15.8778 20.5213 15.9474 20.4772 16.0062 20.4207C16.0649 20.3642 16.1117 20.2964 16.1436 20.2214C16.1756 20.1464 16.192 20.0657 16.192 19.9841C16.192 19.9026 16.1756 19.8219 16.1436 19.7469C16.1117 19.6718 16.0649 19.604 16.0062 19.5475C15.9474 19.491 15.8778 19.447 15.8016 19.418C15.7254 19.389 15.6441 19.3758 15.5626 19.379H12.0292C11.9399 19.7617 11.8009 20.1311 11.6157 20.4777L11.6017 20.5012C11.5848 20.5312 11.5679 20.5602 11.5501 20.5893Z" fill="#1A1A1A"/>
<path d="M16.4064 18.3086C16.4062 18.419 16.3841 18.5282 16.3415 18.6301C16.299 18.7319 16.2367 18.8243 16.1583 18.902C16.0799 18.9797 15.9869 19.0412 15.8847 19.0828C15.7825 19.1245 15.673 19.1456 15.5627 19.1448H11.838C11.8492 19.1064 11.853 19.0652 11.8605 19.0277C11.8899 18.8205 11.9062 18.6116 11.9092 18.4023C11.9105 18.351 11.908 18.2996 11.9017 18.2486C11.8924 17.9843 11.856 17.7217 11.793 17.4648H15.5627C15.7864 17.4648 16.001 17.5537 16.1593 17.712C16.3175 17.8702 16.4064 18.0848 16.4064 18.3086Z" fill="#FBBF61"/>
<path d="M15.5624 19.3792H11.8377C11.8011 19.3793 11.765 19.3708 11.7323 19.3544C11.6996 19.3381 11.6711 19.3143 11.6493 19.2849C11.6274 19.2556 11.6127 19.2215 11.6063 19.1855C11.6 19.1494 11.6022 19.1124 11.6127 19.0773C11.6182 19.0624 11.6222 19.0471 11.6249 19.0314C11.6249 19.0173 11.6296 19.0042 11.6324 18.9902C11.6598 18.7954 11.6752 18.599 11.6784 18.4023C11.6809 18.3621 11.6809 18.3217 11.6784 18.2814C11.6779 18.2736 11.6779 18.2658 11.6784 18.258C11.6698 18.0101 11.6356 17.7638 11.5762 17.523C11.5673 17.4883 11.5665 17.452 11.5738 17.417C11.5811 17.382 11.5963 17.3491 11.6183 17.3208C11.6403 17.2926 11.6685 17.2698 11.7007 17.2541C11.7328 17.2384 11.7682 17.2304 11.804 17.2305H15.5624C15.8474 17.2305 16.1206 17.3437 16.3221 17.5451C16.5236 17.7466 16.6368 18.0199 16.6368 18.3048C16.6368 18.5898 16.5236 18.8631 16.3221 19.0645C16.1206 19.266 15.8474 19.3792 15.5624 19.3792ZM12.1105 18.9105H15.5624C15.642 18.9105 15.7207 18.8948 15.7942 18.8644C15.8677 18.8339 15.9344 18.7893 15.9907 18.7331C16.0469 18.6769 16.0915 18.6101 16.1219 18.5366C16.1524 18.4631 16.168 18.3844 16.168 18.3048C16.168 18.2253 16.1524 18.1466 16.1219 18.0731C16.0915 17.9996 16.0469 17.9328 15.9907 17.8766C15.9344 17.8204 15.8677 17.7758 15.7942 17.7453C15.7207 17.7149 15.642 17.6992 15.5624 17.6992H12.0805C12.1096 17.8739 12.1278 18.0501 12.1349 18.227C12.1417 18.2852 12.1445 18.3438 12.1434 18.4023C12.1419 18.5722 12.131 18.7418 12.1105 18.9105V18.9105Z" fill="#1A1A1A"/>
<path d="M16.4061 16.6282C16.4058 16.7386 16.3838 16.8479 16.3412 16.9497C16.2986 17.0515 16.2363 17.144 16.1579 17.2217C16.0795 17.2994 15.9865 17.3608 15.8843 17.4025C15.7821 17.4442 15.6727 17.4652 15.5623 17.4645H11.7926C11.7804 17.4082 11.7654 17.3473 11.7504 17.2911C11.6382 16.8847 11.463 16.4984 11.2311 16.1464V16.1389C11.2138 16.122 11.1987 16.1031 11.1861 16.0826C11.1139 15.9804 11.0426 15.8829 10.9639 15.792H15.5623C15.7848 15.792 15.9983 15.8798 16.1563 16.0365C16.3143 16.1931 16.4041 16.4058 16.4061 16.6282V16.6282Z" fill="#E3B56C"/>
<path d="M15.5627 17.6991H11.793C11.7388 17.6991 11.6863 17.6805 11.6443 17.6463C11.6023 17.6122 11.5734 17.5646 11.5624 17.5116C11.5521 17.46 11.5389 17.4047 11.5249 17.3522C11.4186 16.9695 11.2531 16.6057 11.0345 16.2741L11.0289 16.2656C11.0152 16.2488 11.0024 16.2313 10.9905 16.2131C10.9276 16.1212 10.8601 16.0327 10.788 15.9478C10.7591 15.9136 10.7407 15.8717 10.7349 15.8273C10.7291 15.7829 10.7361 15.7378 10.7551 15.6973C10.7742 15.6567 10.8044 15.6225 10.8423 15.5986C10.8802 15.5747 10.9241 15.5622 10.9689 15.5625H15.5674C15.8518 15.5625 16.1246 15.6755 16.3257 15.8766C16.5269 16.0778 16.6399 16.3506 16.6399 16.635C16.6399 16.9195 16.5269 17.1922 16.3257 17.3934C16.1246 17.5945 15.8518 17.7075 15.5674 17.7075L15.5627 17.6991ZM11.9777 17.2303H15.5627C15.7228 17.2303 15.8764 17.1667 15.9896 17.0535C16.1028 16.9403 16.1664 16.7867 16.1664 16.6266C16.1664 16.4664 16.1028 16.3129 15.9896 16.1997C15.8764 16.0864 15.7228 16.0228 15.5627 16.0228H11.4377C11.4424 16.0313 11.4461 16.0388 11.4499 16.0472C11.6849 16.4125 11.8629 16.8114 11.9777 17.2303V17.2303Z" fill="#1A1A1A"/>
<path d="M20.2501 21.4331L18.0452 15.8671C17.9199 15.5508 17.562 15.396 17.2457 15.5213L16.8308 15.6856C16.5146 15.8109 16.3597 16.1688 16.485 16.4851L18.6899 22.0512C18.8152 22.3674 19.1731 22.5223 19.4894 22.397L19.9043 22.2326C20.2205 22.1074 20.3754 21.7494 20.2501 21.4331Z" fill="#E3B56C"/>
<path d="M19.264 22.6753C19.0934 22.6753 18.9268 22.6241 18.7858 22.5283C18.6447 22.4325 18.5356 22.2966 18.4727 22.1381L16.2677 16.5722C16.1847 16.3626 16.1884 16.1286 16.2779 15.9217C16.3673 15.7147 16.5353 15.5518 16.7449 15.4687L17.1602 15.3037C17.3697 15.2213 17.6034 15.2252 17.81 15.3147C18.0166 15.4041 18.1794 15.5717 18.2627 15.7809L20.4686 21.3478C20.5516 21.5574 20.548 21.7914 20.4585 21.9983C20.369 22.2052 20.201 22.3681 19.9915 22.4512L19.5761 22.6153C19.4769 22.6552 19.3709 22.6756 19.264 22.6753V22.6753ZM17.4724 15.7134C17.4246 15.7134 17.3772 15.7223 17.3327 15.7397L16.9174 15.9047C16.8235 15.9419 16.748 16.0146 16.7074 16.1072C16.6879 16.1533 16.6779 16.2029 16.6779 16.253C16.6779 16.303 16.6879 16.3526 16.7074 16.3987L18.9124 21.9656C18.9308 22.0122 18.9582 22.0547 18.9931 22.0907C19.0279 22.1266 19.0695 22.1554 19.1155 22.1752C19.1615 22.1951 19.211 22.2057 19.261 22.2064C19.3111 22.2071 19.3609 22.1979 19.4074 22.1794L19.8218 22.0153C19.8684 21.997 19.911 21.9696 19.9471 21.9348C19.9832 21.9 20.012 21.8584 20.032 21.8124C20.0519 21.7664 20.0626 21.7169 20.0634 21.6668C20.0641 21.6167 20.055 21.5669 20.0365 21.5203L17.8305 15.9544C17.8022 15.8827 17.7529 15.8212 17.6889 15.7782C17.625 15.7352 17.5495 15.7126 17.4724 15.7134Z" fill="#1A1A1A"/>
<path d="M11.9064 18.4021C11.9034 18.6114 11.8871 18.8203 11.8576 19.0275C11.8501 19.065 11.8464 19.1062 11.8351 19.1446C11.7554 19.5705 11.6105 19.9816 11.4058 20.3634C11.3983 20.3634 11.3983 20.3709 11.3983 20.3746C11.3261 20.5068 11.2398 20.6306 11.1573 20.7496C11.1423 20.7721 11.1226 20.7946 11.1076 20.8171C10.9072 21.0972 10.6705 21.3494 10.4036 21.5671C10.2412 21.7005 10.0688 21.8212 9.88796 21.9281L9.86921 21.9393C9.24344 22.3079 8.53013 22.5015 7.8039 22.5C6.72795 22.4837 5.70158 22.0448 4.94646 21.2782C4.19134 20.5116 3.76807 19.4787 3.76807 18.4026C3.76807 17.3265 4.19134 16.2936 4.94646 15.527C5.70158 14.7604 6.72795 14.3215 7.8039 14.3053C8.51281 14.3005 9.21051 14.4822 9.82702 14.8321C10.0303 14.9513 10.224 15.0861 10.4064 15.2353C10.5296 15.3361 10.6466 15.4441 10.757 15.5587C10.8283 15.6346 10.8958 15.7134 10.9642 15.7921C11.0326 15.8709 11.1142 15.9796 11.1864 16.0828C11.199 16.1033 11.2142 16.1222 11.2314 16.139V16.1465C11.4633 16.4986 11.6386 16.8848 11.7508 17.2912C11.7658 17.3475 11.7808 17.4084 11.793 17.4646C11.856 17.7215 11.8924 17.9841 11.9017 18.2484C11.907 18.2995 11.9086 18.3508 11.9064 18.4021V18.4021Z" fill="#FBBF61"/>
<path d="M7.80398 22.7342C7.14241 22.7314 6.49025 22.5772 5.89753 22.2833C5.30481 21.9894 4.78727 21.5637 4.3846 21.0388C3.98194 20.5139 3.70484 19.9037 3.57457 19.2551C3.44429 18.6065 3.4643 17.9366 3.63306 17.2969C3.80182 16.6572 4.11485 16.0647 4.54813 15.5647C4.98142 15.0648 5.52345 14.6707 6.13265 14.4128C6.74186 14.1548 7.40206 14.0398 8.06261 14.0765C8.72316 14.1133 9.36653 14.3008 9.94335 14.6248C10.1576 14.7507 10.3619 14.8926 10.5546 15.0495C10.6861 15.1562 10.8113 15.2704 10.9296 15.3917C11.0074 15.4732 11.0777 15.5557 11.1471 15.6363C11.2313 15.7343 11.3098 15.837 11.3824 15.9439C11.3859 15.9483 11.389 15.953 11.3918 15.9579V15.9579L11.4021 15.9692C11.424 15.9916 11.4415 16.018 11.4537 16.047C11.6891 16.4112 11.8674 16.8092 11.9824 17.2273C11.9984 17.2863 12.0134 17.3492 12.0255 17.4092C12.0913 17.6758 12.1296 17.9485 12.1399 18.2229C12.1467 18.2811 12.1495 18.3397 12.1484 18.3982C12.1452 18.6178 12.1283 18.837 12.0977 19.0545V19.0704L12.0921 19.1023C12.0878 19.1338 12.0819 19.1651 12.0743 19.196C11.99 19.6434 11.8379 20.0752 11.6234 20.4767L11.6093 20.5001C11.5371 20.6313 11.4546 20.7513 11.3749 20.8676L11.3609 20.8882C11.3524 20.9004 11.3412 20.9145 11.3299 20.9295L11.313 20.9529C11.0996 21.251 10.8474 21.5193 10.563 21.7507C10.3921 21.8896 10.2106 22.0149 10.0202 22.1257H10.0155L9.99492 22.1379C9.33121 22.5294 8.57452 22.7353 7.80398 22.7342V22.7342ZM7.80398 14.5385C7.21083 14.5388 6.6257 14.6757 6.09395 14.9385C5.5622 15.2013 5.09811 15.583 4.73763 16.054C4.37715 16.5251 4.12998 17.0728 4.01526 17.6548C3.90054 18.2367 3.92136 18.8373 4.07611 19.4099C4.23085 19.9825 4.51536 20.5118 4.90759 20.9567C5.29982 21.4017 5.78924 21.7504 6.33791 21.9757C6.88659 22.2011 7.47978 22.2971 8.07153 22.2563C8.66328 22.2155 9.23768 22.0389 9.75023 21.7404V21.7404L9.76898 21.7282C9.93837 21.6283 10.0998 21.5155 10.2518 21.3907C10.5031 21.1864 10.7266 20.95 10.9165 20.6876C10.9212 20.6801 10.9324 20.6651 10.9437 20.6501L10.969 20.6248L10.9849 20.6014C11.0543 20.5001 11.1265 20.3951 11.1865 20.2892C11.195 20.2659 11.207 20.2441 11.2221 20.2245C11.4076 19.8712 11.5387 19.4919 11.6112 19.0995C11.6126 19.0909 11.6145 19.0825 11.6168 19.0742C11.6208 19.06 11.6236 19.0456 11.6252 19.031C11.6252 19.017 11.6299 19.0038 11.6327 18.9898C11.6601 18.795 11.6755 18.5987 11.6787 18.402C11.6812 18.3617 11.6812 18.3213 11.6787 18.281C11.6782 18.2732 11.6782 18.2654 11.6787 18.2576C11.6701 18.0097 11.6359 17.7634 11.5765 17.5226V17.5104C11.5662 17.4588 11.553 17.4035 11.539 17.351C11.4327 16.9683 11.2672 16.6046 11.0487 16.2729L11.043 16.2645C11.0293 16.2477 11.0165 16.2301 11.0046 16.212C10.9418 16.1201 10.8742 16.0315 10.8021 15.9467C10.7327 15.866 10.668 15.791 10.6015 15.7207C10.4981 15.6132 10.3886 15.5117 10.2734 15.417C10.1 15.2751 9.9157 15.1472 9.7221 15.0345C9.13723 14.7039 8.47576 14.5329 7.80398 14.5385V14.5385Z" fill="#1A1A1A"/>
<path d="M12.7808 10.5C12.7808 10.5 10.5308 8.71875 10.5308 6C10.5308 3.28125 12.7808 1.5 12.7808 1.5C12.7808 1.5 15.0308 3.28125 15.0308 6C15.0308 8.71875 12.7808 10.5 12.7808 10.5Z" fill="#5C92A7"/>
<path d="M12.7808 10.7306C12.728 10.7307 12.6768 10.7128 12.6355 10.68C12.5417 10.604 10.2974 8.79652 10.2974 5.99809C10.2974 3.19965 12.5399 1.39215 12.6355 1.31246C12.6768 1.27961 12.728 1.26172 12.7808 1.26172C12.8336 1.26172 12.8848 1.27961 12.9261 1.31246C13.0199 1.3884 15.2642 3.1959 15.2642 5.99434C15.2642 8.79277 13.0217 10.6003 12.9261 10.6762C12.8853 10.7104 12.834 10.7296 12.7808 10.7306V10.7306ZM12.7808 1.81027C12.2961 2.25465 10.7661 3.82684 10.7661 5.99809C10.7661 8.16934 12.2961 9.74152 12.7808 10.185C13.2664 9.74152 14.7955 8.16934 14.7955 5.99809C14.7955 3.82684 13.2664 2.25465 12.7808 1.81027V1.81027Z" fill="#1A1A1A"/>
<path d="M13.0151 6.75H12.5464V15.6516H13.0151V6.75Z" fill="#1A1A1A"/>
<path d="M13.6079 13.3986C13.6079 13.3986 13.4204 11.7749 14.5136 10.6799C15.6067 9.58485 17.2323 9.77423 17.2323 9.77423C17.2323 9.77423 17.4198 11.397 16.3267 12.493C15.2336 13.5889 13.6079 13.3986 13.6079 13.3986Z" fill="#FBBF61"/>
<path d="M13.9001 13.6462C13.7933 13.6469 13.6866 13.6419 13.5804 13.6312C13.528 13.6252 13.4792 13.6016 13.4419 13.5643C13.4046 13.527 13.3811 13.4782 13.3751 13.4259C13.3666 13.3546 13.1876 11.6765 14.3482 10.514C15.5088 9.35149 17.1879 9.53243 17.2545 9.54086C17.3068 9.54724 17.3556 9.57104 17.3928 9.60844C17.4301 9.64585 17.4536 9.69469 17.4598 9.74711C17.4682 9.81743 17.6473 11.4965 16.4866 12.6581C15.6195 13.5299 14.4551 13.6462 13.9001 13.6462ZM13.8307 13.1774C14.2732 13.1774 15.3757 13.1127 16.1604 12.3281C16.9451 11.5434 17.0173 10.4418 17.0098 9.9993C16.5645 9.99368 15.4638 10.0631 14.6791 10.8431C13.8945 11.6231 13.8241 12.7312 13.8307 13.1756V13.1774Z" fill="#1A1A1A"/>
<path d="M11.2498 12.4686C11.2498 12.4686 10.0414 12.6092 9.22575 11.7945C8.41012 10.9798 8.55075 9.7695 8.55075 9.7695C8.55075 9.7695 9.76012 9.62887 10.5757 10.4445C11.3914 11.2601 11.2498 12.4686 11.2498 12.4686Z" fill="#FBBF61"/>
<path d="M11.0352 12.7146C10.6124 12.7146 9.72271 12.6265 9.06084 11.9646C8.17584 11.0796 8.31083 9.8018 8.31927 9.74743C8.32528 9.69505 8.34884 9.64625 8.38612 9.60897C8.4234 9.57169 8.47221 9.54812 8.52459 9.54211C8.57896 9.53555 9.85677 9.39868 10.7418 10.2837C11.6268 11.1687 11.4918 12.4474 11.4843 12.5009C11.4778 12.5533 11.454 12.6021 11.4166 12.6394C11.3792 12.6768 11.3305 12.7006 11.278 12.7071C11.2649 12.7043 11.1758 12.7146 11.0352 12.7146ZM8.77771 9.99586C8.77771 10.3474 8.85552 11.0918 9.39271 11.629C9.9299 12.1662 10.6733 12.2412 11.0258 12.244C11.0258 11.8915 10.9471 11.1471 10.4108 10.6109C9.87459 10.0746 9.12927 9.99961 8.77771 9.9968V9.99586Z" fill="#1A1A1A"/>
<path d="M12.8607 14.3802C12.8299 14.3801 12.7993 14.3739 12.7709 14.362C12.7424 14.3501 12.7165 14.3327 12.6948 14.3108L9.82324 11.4373L10.1542 11.1055L12.8617 13.813L14.5379 12.1527L14.8679 12.4855L13.0257 14.3098C12.9822 14.3541 12.9229 14.3794 12.8607 14.3802Z" fill="#1A1A1A"/>
<path d="M7.80738 21.1265C9.31201 21.1265 10.5318 19.9067 10.5318 18.4021C10.5318 16.8975 9.31201 15.6777 7.80738 15.6777C6.30275 15.6777 5.08301 16.8975 5.08301 18.4021C5.08301 19.9067 6.30275 21.1265 7.80738 21.1265Z" fill="#F2F2F2"/>
<path d="M7.80738 21.3609C7.2222 21.3609 6.65015 21.1873 6.16359 20.8622C5.67703 20.5371 5.2978 20.075 5.07386 19.5344C4.84991 18.9937 4.79132 18.3988 4.90549 17.8249C5.01965 17.2509 5.30144 16.7237 5.71523 16.31C6.12902 15.8962 6.65622 15.6144 7.23016 15.5002C7.8041 15.386 8.39901 15.4446 8.93965 15.6686C9.48029 15.8925 9.94238 16.2718 10.2675 16.7583C10.5926 17.2449 10.7661 17.8169 10.7661 18.4021C10.7651 19.1865 10.4531 19.9385 9.89844 20.4932C9.34378 21.0478 8.59179 21.3599 7.80738 21.3609V21.3609ZM7.80738 15.9121C7.31491 15.9121 6.83349 16.0581 6.42401 16.3318C6.01454 16.6054 5.69539 16.9942 5.50692 17.4492C5.31846 17.9042 5.26915 18.4049 5.36523 18.8879C5.46131 19.3709 5.69846 19.8146 6.04669 20.1628C6.39492 20.511 6.8386 20.7482 7.32161 20.8443C7.80462 20.9403 8.30528 20.891 8.76027 20.7026C9.21525 20.5141 9.60414 20.195 9.87774 19.7855C10.1513 19.376 10.2974 18.8946 10.2974 18.4021C10.2964 17.742 10.0337 17.1093 9.56698 16.6425C9.10023 16.1758 8.46747 15.9131 7.80738 15.9121V15.9121Z" fill="#1A1A1A"/>
<path d="M8.32789 19.7934H7.26383C6.83914 19.7934 6.49414 19.4184 6.49414 18.9581V18.9375H6.96289V18.9609C6.96289 19.1625 7.09789 19.3275 7.26383 19.3275H8.32789C8.49289 19.3275 8.62695 19.1634 8.62695 18.9628C8.62695 18.7622 8.49289 18.599 8.32789 18.599H7.26195C6.8382 18.599 6.49414 18.224 6.49414 17.7656C6.49414 17.3072 6.8382 16.9331 7.26195 16.9331H8.32602C8.7507 16.9331 9.0957 17.3081 9.0957 17.7684H8.62508C8.62508 17.5659 8.49008 17.4019 8.32414 17.4019H7.26195C7.09695 17.4019 6.96289 17.565 6.96289 17.7656C6.96289 17.9662 7.09695 18.1303 7.26195 18.1303H8.32789C8.75164 18.1303 9.0957 18.5053 9.0957 18.9628C9.0957 19.4203 8.75164 19.7934 8.32789 19.7934Z" fill="#1A1A1A"/>
<path d="M8.02979 16.6436H7.56104V20.1629H8.02979V16.6436Z" fill="#1A1A1A"/>
</svg>
