<svg width="24" height="24" viewBox="0 0 24 24" fill="none" xmlns="http://www.w3.org/2000/svg">
<g clip-path="url(#clip0_380_1115)">
<path d="M12 24C18.6274 24 24 18.6274 24 12C24 5.37258 18.6274 0 12 0C5.37258 0 0 5.37258 0 12C0 18.6274 5.37258 24 12 24Z" fill="#EF4C45"/>
<path d="M15.9601 23.3152C16.0901 23.2744 16.2193 23.2313 16.3478 23.186C16.7207 23.0407 17.0861 22.8768 17.4426 22.6949C17.7991 22.5133 18.1463 22.314 18.4829 22.0977C18.8195 21.8818 19.1452 21.6492 19.4586 21.4008C19.7722 21.152 20.0732 20.8876 20.3604 20.6088C20.6475 20.33 20.9205 20.037 21.1783 19.7309C21.4359 19.4248 21.678 19.1059 21.9038 18.7755C22.13 18.4453 22.3395 18.1039 22.5315 17.7528C22.7236 17.4017 22.8979 17.0413 23.054 16.6728C23.2096 16.3045 23.3467 15.9286 23.4647 15.5466C23.524 15.3364 23.5776 15.1246 23.6253 14.9115L17.174 8.46107L17.1647 8.45C17.1592 8.44354 17.1518 8.43892 17.1463 8.43153C17.1389 8.426 17.1306 8.42046 17.1241 8.414C16.9845 8.27838 16.8342 8.15428 16.6746 8.04292C16.6155 8.00046 16.5518 7.96446 16.49 7.92569C16.3055 7.81079 16.1108 7.71315 15.9084 7.634C15.7743 7.58257 15.6371 7.53941 15.4977 7.50477C15.4238 7.4863 15.3518 7.46415 15.2761 7.44938C15.0616 7.40789 14.8438 7.38626 14.6253 7.38477C14.4813 7.38477 14.342 7.394 14.2053 7.41246C13.2592 7.53707 12.4801 8.08261 11.9078 8.80353L11.5275 8.42323C11.4924 8.38723 11.4509 8.36046 11.414 8.3263C11.353 8.26907 11.2884 8.21923 11.2247 8.16753C11.0981 8.06359 10.9645 7.9683 10.825 7.8823C10.7226 7.81953 10.6229 7.754 10.5149 7.7023C10.4853 7.68846 10.4577 7.67369 10.4281 7.66077C10.2178 7.56795 9.99808 7.49831 9.77273 7.45307C9.56663 7.40934 9.35665 7.38645 9.14596 7.38477C7.16135 7.38477 5.50535 8.97246 5.53858 10.9617C5.56442 12.5623 6.74596 14.1002 8.04842 15.4045L8.05765 15.4137L15.9592 23.3152H15.9601Z" fill="#DF2209"/>
<path d="M9.14409 7.38477C7.16317 7.38477 5.50624 8.97246 5.53855 10.9617C5.5644 12.5623 6.74594 14.1002 8.0484 15.4045C9.34994 16.7088 10.8389 17.8008 11.6253 18.3749L11.8847 18.5485L12.1441 18.3749C12.9296 17.8017 14.4426 16.682 15.7506 15.3749C15.8798 15.2457 15.9989 15.1045 16.1253 14.9715L15.7792 14.1925L15.721 14.0485C15.5161 14.2838 15.313 14.5137 15.0869 14.7408C14.7324 15.0943 14.3761 15.4432 14.0198 15.7506C13.2213 16.4365 12.4469 16.982 11.8847 17.3937C11.1933 16.886 10.2139 16.1448 9.23086 15.2309C9.06009 15.0722 8.88009 14.9097 8.71117 14.7408C7.47609 13.5029 6.48009 12.0869 6.46163 10.9617C6.43763 9.4903 7.65978 8.30784 9.14409 8.30784C10.165 8.30784 11.0272 8.85707 11.4804 9.69246L11.8847 10.4429L12.289 9.69246C12.5155 9.27121 12.8525 8.91969 13.2638 8.67572C13.6752 8.43174 14.1452 8.30456 14.6235 8.30784C14.8173 8.30784 15.1413 8.36046 15.3038 8.40938C16.4632 8.69923 17.3069 9.71184 17.3069 10.9617L18.0278 9.86507C17.557 8.43061 16.2195 7.38477 14.6253 7.38477C13.477 7.38477 12.541 7.98846 11.8847 8.82753C11.2293 7.98661 10.2924 7.38477 9.14409 7.38477ZM15.2309 9.44507L13.7576 12.8817L12.8669 11.5432L11.7149 13.8463H10.1539V14.7694H12.2853L12.9804 13.3792L13.9349 14.8128L15.2309 11.7878L16.5379 14.834L17.629 13.1088L18.1173 14.7694H19.8749V13.8463H18.8078L17.9392 10.8925L16.6949 12.8605L15.2309 9.44507V9.44507Z" fill="white"/>
</g>
<defs>
<clipPath id="clip0_380_1115">
<rect width="24" height="24" fill="white"/>
</clipPath>
</defs>
</svg>
