<svg width="24" height="24" viewBox="0 0 24 24" fill="none" xmlns="http://www.w3.org/2000/svg">
<path d="M2.55185 1.07464C1.82569 1.26793 1.2585 1.84779 1.06515 2.58229C1.00929 2.79706 1.00069 4.00833 1.00069 12.0019C1.00069 22.1044 0.983507 21.4 1.2628 21.9283C1.52921 22.4223 2.10928 22.8475 2.67216 22.9549C2.99013 23.015 21.0111 23.015 21.329 22.9549C21.9263 22.8389 22.4978 22.4051 22.7642 21.8639C22.9532 21.4816 23.0005 21.2239 23.0005 20.5925C23.0005 19.9611 22.9532 19.7034 22.7642 19.3211C22.5708 18.9216 22.1841 18.5522 21.7802 18.3761C21.5138 18.2601 21.4966 18.243 21.5224 18.1442C21.5997 17.8521 21.6212 17.6502 21.6212 17.1562C21.6212 16.6623 21.5997 16.4604 21.5224 16.1683C21.4966 16.0695 21.5138 16.0524 21.7802 15.9364C22.356 15.683 22.8415 15.073 22.9575 14.4545C23.0134 14.1538 23.0134 13.2819 22.9575 12.9855C22.8501 12.4228 22.4247 11.843 21.9306 11.5766C21.4837 11.3404 21.2989 11.3146 20.0271 11.3146H18.8755V7.10954C18.8755 4.43356 18.8583 2.82283 18.8326 2.67679C18.6865 1.91652 18.072 1.27222 17.3072 1.07034C16.9334 0.975848 2.91279 0.975848 2.55185 1.07464ZM17.088 2.44055C17.1654 2.47491 17.2857 2.5737 17.3544 2.6639L17.4791 2.82283L17.4919 7.07088L17.5005 11.3146H17.0365C16.2888 11.3146 15.8377 11.4779 15.3908 11.9031C15.2447 12.0405 15.0814 12.2553 14.9998 12.4099L14.858 12.6848L13.99 12.6977C13.0404 12.7106 13.0146 12.7192 12.7998 13.007C12.6752 13.1745 12.6752 13.5783 12.7998 13.7458C13.0103 14.0293 13.049 14.0422 13.9299 14.055L14.7334 14.0679L14.7806 14.3557C14.8107 14.5146 14.8408 14.6822 14.858 14.7294C14.8795 14.8024 14.8408 14.8325 14.6002 14.9399C14.4455 15.0086 14.2264 15.146 14.1103 15.2491C13.8998 15.4381 13.8998 15.4381 13.5732 15.4381C13.1908 15.4381 13.0103 15.5026 12.8471 15.6915C12.5377 16.0609 12.7225 16.6537 13.1865 16.7783L13.3756 16.8298V17.2851C13.3756 17.5342 13.4014 17.8392 13.4314 17.9595L13.4873 18.1785L13.2982 18.2C13.092 18.2215 12.9373 18.316 12.7998 18.505C12.6752 18.6725 12.6752 19.0762 12.7998 19.2438C13.0018 19.5144 13.0705 19.5401 13.7365 19.553C14.2221 19.5659 14.3853 19.553 14.5142 19.5015C14.6947 19.4242 14.7463 19.4199 14.8279 19.4671C14.8709 19.4972 14.8709 19.553 14.815 19.7549C14.7334 20.0813 14.7291 21.0864 14.8107 21.4L14.8666 21.6234L8.84242 21.6148L2.81826 21.6019L2.65927 21.4773C2.3542 21.2454 2.37568 22.0142 2.37568 12.0062C2.37568 5.69209 2.38857 2.90873 2.42295 2.82283C2.4831 2.6639 2.6249 2.50927 2.78388 2.44055C2.98154 2.35464 16.8775 2.35464 17.088 2.44055ZM21.213 12.7493C21.2903 12.7836 21.4107 12.8824 21.4794 12.9726C21.604 13.1315 21.604 13.1401 21.604 13.7243C21.604 14.3686 21.5825 14.4373 21.3075 14.6392C21.1915 14.7294 21.1443 14.7294 18.8798 14.7294H16.5681L16.4091 14.6048C16.1728 14.4287 16.1256 14.2741 16.1256 13.7243C16.1256 13.226 16.1599 13.0757 16.3103 12.9082C16.508 12.6934 16.508 12.6934 18.8669 12.6891C20.6544 12.6891 21.097 12.702 21.213 12.7493ZM19.838 16.1855C19.9154 16.2199 20.0357 16.3187 20.1044 16.4089C20.229 16.5678 20.229 16.5764 20.229 17.1605C20.229 17.8048 20.2075 17.8736 19.9325 18.0754C19.8165 18.1656 19.7693 18.1656 17.5048 18.1656H15.1931L15.0342 18.0411C14.7978 17.865 14.7506 17.7103 14.7506 17.1562C14.7506 16.5506 14.858 16.3015 15.1802 16.1726C15.2447 16.1468 16.147 16.1297 17.4919 16.1297C19.2837 16.1254 19.722 16.1383 19.838 16.1855ZM21.213 19.6217C21.2903 19.6561 21.4107 19.7549 21.4794 19.8451C21.604 20.004 21.604 20.0126 21.604 20.5968C21.604 21.2411 21.5825 21.3098 21.3075 21.5117C21.1915 21.6019 21.1443 21.6019 18.8798 21.6019H16.5681L16.4091 21.4773C16.1728 21.3012 16.1256 21.1466 16.1256 20.5968C16.1256 20.0985 16.1599 19.9482 16.3103 19.7807C16.508 19.5659 16.508 19.5659 18.8669 19.5616C20.6544 19.5616 21.097 19.5745 21.213 19.6217Z" fill="#2FA0DF"/>
<path d="M4.79482 4.48087C4.5456 4.5453 4.20615 4.76865 4.04287 4.97912C3.74209 5.37429 3.74639 5.35281 3.75928 7.96865L3.77217 10.3053L3.91826 10.5759C4.08154 10.8766 4.21474 11.0054 4.5413 11.1772L4.76044 11.2932H9.93813H15.1158L15.3865 11.1472C15.6873 10.984 15.8162 10.8508 15.9881 10.5244L16.1041 10.3053V7.87845V5.4516L15.9881 5.23254C15.8162 4.9061 15.6873 4.77295 15.3865 4.60973L15.1158 4.46369L10.0241 4.45509C7.22253 4.45509 4.87216 4.46369 4.79482 4.48087ZM14.7506 7.87845V9.94019H9.93813H5.12567V7.87845V5.81671H9.93813H14.7506V7.87845Z" fill="#2FA0DF"/>
<path d="M4.8459 12.7492C4.42925 12.9339 4.31328 13.4837 4.61395 13.8273C4.80724 14.0464 4.94899 14.0722 5.90684 14.055C6.83033 14.0421 6.86469 14.0335 7.07516 13.7457C7.19972 13.5782 7.19972 13.1745 7.07516 13.0069C6.86039 12.7192 6.83892 12.7106 5.86388 12.702C5.18952 12.6934 4.94469 12.702 4.8459 12.7492Z" fill="#2FA0DF"/>
<path d="M8.97139 12.7492C8.55474 12.9339 8.43877 13.4837 8.73944 13.8273C8.93273 14.0464 9.07447 14.0722 10.0323 14.055C10.9558 14.0421 10.9902 14.0335 11.2006 13.7457C11.3252 13.5782 11.3252 13.1745 11.2006 13.0069C10.9859 12.7192 10.9644 12.7106 9.98937 12.702C9.31501 12.6934 9.07018 12.702 8.97139 12.7492Z" fill="#2FA0DF"/>
<path d="M4.8459 15.4982C4.42925 15.6829 4.31328 16.2327 4.61395 16.5764C4.80724 16.7954 4.94899 16.8212 5.90684 16.804C6.83033 16.7911 6.86469 16.7825 7.07516 16.4948C7.19972 16.3272 7.19972 15.9235 7.07516 15.756C6.86039 15.4682 6.83892 15.4596 5.86388 15.451C5.18952 15.4424 4.94469 15.451 4.8459 15.4982Z" fill="#2FA0DF"/>
<path d="M8.97139 15.4982C8.55474 15.6829 8.43877 16.2327 8.73944 16.5764C8.93273 16.7954 9.07447 16.8212 10.0323 16.804C10.9558 16.7911 10.9902 16.7825 11.2006 16.4948C11.3252 16.3272 11.3252 15.9235 11.2006 15.756C10.9859 15.4682 10.9644 15.4596 9.98937 15.451C9.31501 15.4424 9.07018 15.451 8.97139 15.4982Z" fill="#2FA0DF"/>
<path d="M4.8459 18.2473C4.42925 18.432 4.31328 18.9818 4.61395 19.3254C4.80724 19.5444 4.94899 19.5702 5.90684 19.553C6.83033 19.5402 6.86469 19.5316 7.07516 19.2438C7.19972 19.0763 7.19972 18.6725 7.07516 18.505C6.86039 18.2172 6.83892 18.2086 5.86388 18.2C5.18952 18.1914 4.94469 18.2 4.8459 18.2473Z" fill="#2FA0DF"/>
<path d="M8.97139 18.2473C8.55474 18.432 8.43877 18.9818 8.73944 19.3254C8.93273 19.5444 9.07447 19.5702 10.0323 19.553C10.9558 19.5402 10.9902 19.5316 11.2006 19.2438C11.3252 19.0763 11.3252 18.6725 11.2006 18.505C10.9859 18.2172 10.9644 18.2086 9.98937 18.2C9.31501 18.1914 9.07018 18.2 8.97139 18.2473Z" fill="#2FA0DF"/>
</svg>
