<svg width="18" height="18" viewBox="0 0 18 18" fill="none" xmlns="http://www.w3.org/2000/svg">
<path fill-rule="evenodd" clip-rule="evenodd" d="M5.4002 1.19995C5.55932 1.19995 5.71194 1.26317 5.82446 1.37569C5.93698 1.48821 6.0002 1.64082 6.0002 1.79995V2.39995H12.0002V1.79995C12.0002 1.64082 12.0634 1.48821 12.1759 1.37569C12.2885 1.26317 12.4411 1.19995 12.6002 1.19995C12.7593 1.19995 12.9119 1.26317 13.0245 1.37569C13.137 1.48821 13.2002 1.64082 13.2002 1.79995V2.39995H15.0002C15.4776 2.39995 15.9354 2.58959 16.273 2.92716C16.6106 3.26472 16.8002 3.72256 16.8002 4.19995V15C16.8002 15.4773 16.6106 15.9352 16.273 16.2727C15.9354 16.6103 15.4776 16.8 15.0002 16.8H3.0002C2.52281 16.8 2.06497 16.6103 1.7274 16.2727C1.38984 15.9352 1.2002 15.4773 1.2002 15V4.19995C1.2002 3.72256 1.38984 3.26472 1.7274 2.92716C2.06497 2.58959 2.52281 2.39995 3.0002 2.39995H4.8002V1.79995C4.80019 1.64082 4.86341 1.48821 4.97593 1.37569C5.08845 1.26317 5.24107 1.19995 5.4002 1.19995ZM12.0002 3.59995V4.19995C12.0002 4.35908 12.0634 4.51169 12.1759 4.62421C12.2885 4.73674 12.4411 4.79995 12.6002 4.79995C12.7593 4.79995 12.9119 4.73674 13.0245 4.62421C13.137 4.51169 13.2002 4.35908 13.2002 4.19995V3.59995H15.0002C15.1593 3.59995 15.3119 3.66317 15.4245 3.77569C15.537 3.88821 15.6002 4.04082 15.6002 4.19995V5.99995H2.4002V4.19995C2.4002 4.04082 2.46341 3.88821 2.57593 3.77569C2.68845 3.66317 2.84107 3.59995 3.0002 3.59995H4.8002V4.19995C4.80019 4.35908 4.86341 4.51169 4.97593 4.62421C5.08845 4.73674 5.24107 4.79995 5.4002 4.79995C5.55932 4.79995 5.71194 4.73674 5.82446 4.62421C5.93698 4.51169 6.0002 4.35908 6.0002 4.19995V3.59995H12.0002ZM2.4002 7.19995V15C2.4002 15.1591 2.46341 15.3117 2.57593 15.4242C2.68845 15.5367 2.84107 15.6 3.0002 15.6H15.0002C15.1593 15.6 15.3119 15.5367 15.4245 15.4242C15.537 15.3117 15.6002 15.1591 15.6002 15V7.19995H2.4002ZM8.4002 8.99995C8.4002 8.84082 8.46341 8.68821 8.57593 8.57569C8.68845 8.46316 8.84106 8.39995 9.0002 8.39995C9.15932 8.39995 9.31194 8.46316 9.42446 8.57569C9.53698 8.68821 9.60019 8.84082 9.60019 8.99995C9.60019 9.15908 9.53698 9.31169 9.42446 9.42421C9.31194 9.53674 9.15932 9.59995 9.0002 9.59995C8.84106 9.59995 8.68845 9.53674 8.57593 9.42421C8.46341 9.31169 8.4002 9.15908 8.4002 8.99995ZM11.4002 8.39995C11.2411 8.39995 11.0885 8.46316 10.9759 8.57569C10.8634 8.68821 10.8002 8.84082 10.8002 8.99995C10.8002 9.15908 10.8634 9.31169 10.9759 9.42421C11.0885 9.53674 11.2411 9.59995 11.4002 9.59995C11.5593 9.59995 11.7119 9.53674 11.8245 9.42421C11.937 9.31169 12.0002 9.15908 12.0002 8.99995C12.0002 8.84082 11.937 8.68821 11.8245 8.57569C11.7119 8.46316 11.5593 8.39995 11.4002 8.39995ZM13.2002 8.99995C13.2002 8.84082 13.2634 8.68821 13.3759 8.57569C13.4885 8.46316 13.6411 8.39995 13.8002 8.39995C13.9593 8.39995 14.1119 8.46316 14.2245 8.57569C14.337 8.68821 14.4002 8.84082 14.4002 8.99995C14.4002 9.15908 14.337 9.31169 14.2245 9.42421C14.1119 9.53674 13.9593 9.59995 13.8002 9.59995C13.6411 9.59995 13.4885 9.53674 13.3759 9.42421C13.2634 9.31169 13.2002 9.15908 13.2002 8.99995ZM13.8002 10.8C13.6411 10.8 13.4885 10.8632 13.3759 10.9757C13.2634 11.0882 13.2002 11.2408 13.2002 11.4C13.2002 11.5591 13.2634 11.7117 13.3759 11.8242C13.4885 11.9367 13.6411 12 13.8002 12C13.9593 12 14.1119 11.9367 14.2245 11.8242C14.337 11.7117 14.4002 11.5591 14.4002 11.4C14.4002 11.2408 14.337 11.0882 14.2245 10.9757C14.1119 10.8632 13.9593 10.8 13.8002 10.8ZM10.8002 11.4C10.8002 11.2408 10.8634 11.0882 10.9759 10.9757C11.0885 10.8632 11.2411 10.8 11.4002 10.8C11.5593 10.8 11.7119 10.8632 11.8245 10.9757C11.937 11.0882 12.0002 11.2408 12.0002 11.4C12.0002 11.5591 11.937 11.7117 11.8245 11.8242C11.7119 11.9367 11.5593 12 11.4002 12C11.2411 12 11.0885 11.9367 10.9759 11.8242C10.8634 11.7117 10.8002 11.5591 10.8002 11.4ZM9.0002 10.8C8.84106 10.8 8.68845 10.8632 8.57593 10.9757C8.46341 11.0882 8.4002 11.2408 8.4002 11.4C8.4002 11.5591 8.46341 11.7117 8.57593 11.8242C8.68845 11.9367 8.84106 12 9.0002 12C9.15932 12 9.31194 11.9367 9.42446 11.8242C9.53698 11.7117 9.60019 11.5591 9.60019 11.4C9.60019 11.2408 9.53698 11.0882 9.42446 10.9757C9.31194 10.8632 9.15932 10.8 9.0002 10.8ZM6.0002 11.4C6.0002 11.2408 6.06341 11.0882 6.17593 10.9757C6.28845 10.8632 6.44107 10.8 6.60019 10.8C6.75933 10.8 6.91194 10.8632 7.02446 10.9757C7.13698 11.0882 7.20019 11.2408 7.20019 11.4C7.20019 11.5591 7.13698 11.7117 7.02446 11.8242C6.91194 11.9367 6.75933 12 6.60019 12C6.44107 12 6.28845 11.9367 6.17593 11.8242C6.06341 11.7117 6.0002 11.5591 6.0002 11.4ZM4.2002 10.8C4.04107 10.8 3.88845 10.8632 3.77593 10.9757C3.66341 11.0882 3.6002 11.2408 3.6002 11.4C3.6002 11.5591 3.66341 11.7117 3.77593 11.8242C3.88845 11.9367 4.04107 12 4.2002 12C4.35932 12 4.51194 11.9367 4.62446 11.8242C4.73698 11.7117 4.8002 11.5591 4.8002 11.4C4.8002 11.2408 4.73698 11.0882 4.62446 10.9757C4.51194 10.8632 4.35932 10.8 4.2002 10.8ZM3.6002 13.8C3.6002 13.6408 3.66341 13.4882 3.77593 13.3757C3.88845 13.2632 4.04107 13.2 4.2002 13.2C4.35932 13.2 4.51194 13.2632 4.62446 13.3757C4.73698 13.4882 4.8002 13.6408 4.8002 13.8C4.8002 13.9591 4.73698 14.1117 4.62446 14.2242C4.51194 14.3367 4.35932 14.4 4.2002 14.4C4.04107 14.4 3.88845 14.3367 3.77593 14.2242C3.66341 14.1117 3.6002 13.9591 3.6002 13.8ZM6.60019 13.2C6.44107 13.2 6.28845 13.2632 6.17593 13.3757C6.06341 13.4882 6.0002 13.6408 6.0002 13.8C6.0002 13.9591 6.06341 14.1117 6.17593 14.2242C6.28845 14.3367 6.44107 14.4 6.60019 14.4C6.75933 14.4 6.91194 14.3367 7.02446 14.2242C7.13698 14.1117 7.20019 13.9591 7.20019 13.8C7.20019 13.6408 7.13698 13.4882 7.02446 13.3757C6.91194 13.2632 6.75933 13.2 6.60019 13.2ZM8.4002 13.8C8.4002 13.6408 8.46341 13.4882 8.57593 13.3757C8.68845 13.2632 8.84106 13.2 9.0002 13.2C9.15932 13.2 9.31194 13.2632 9.42446 13.3757C9.53698 13.4882 9.60019 13.6408 9.60019 13.8C9.60019 13.9591 9.53698 14.1117 9.42446 14.2242C9.31194 14.3367 9.15932 14.4 9.0002 14.4C8.84106 14.4 8.68845 14.3367 8.57593 14.2242C8.46341 14.1117 8.4002 13.9591 8.4002 13.8ZM11.4002 13.2C11.2411 13.2 11.0885 13.2632 10.9759 13.3757C10.8634 13.4882 10.8002 13.6408 10.8002 13.8C10.8002 13.9591 10.8634 14.1117 10.9759 14.2242C11.0885 14.3367 11.2411 14.4 11.4002 14.4C11.5593 14.4 11.7119 14.3367 11.8245 14.2242C11.937 14.1117 12.0002 13.9591 12.0002 13.8C12.0002 13.6408 11.937 13.4882 11.8245 13.3757C11.7119 13.2632 11.5593 13.2 11.4002 13.2Z" fill="#2FA0DF"/>
</svg>
