<svg width="24" height="24" viewBox="0 0 24 24" fill="none" xmlns="http://www.w3.org/2000/svg">
<path d="M12.6854 2.8717C12.4941 2.71497 12.2511 2.6289 12 2.6289C11.7489 2.6289 11.5059 2.71497 11.3146 2.8717L3.06462 9.62568C2.94781 9.7214 2.854 9.84043 2.78972 9.97453C2.72543 10.1086 2.69219 10.2546 2.69231 10.4023V20.9627C2.69231 21.0708 2.73688 21.1744 2.81622 21.2508C2.89557 21.3273 3.00318 21.3702 3.11538 21.3702H7.34615C7.45836 21.3702 7.56597 21.3273 7.64531 21.2508C7.72466 21.1744 7.76923 21.0708 7.76923 20.9627V15.2583C7.76923 14.718 7.9921 14.1998 8.38881 13.8178C8.78552 13.4357 9.32358 13.2211 9.88462 13.2211H13.6923C13.9701 13.2211 14.2452 13.2738 14.5018 13.3761C14.7585 13.4785 14.9917 13.6286 15.1881 13.8178C15.3845 14.007 15.5404 14.2315 15.6467 14.4787C15.753 14.7259 15.8077 14.9908 15.8077 15.2583V20.9627C15.8077 21.0708 15.8523 21.1744 15.9316 21.2508C16.011 21.3273 16.1186 21.3702 16.2308 21.3702H20.8846C20.9968 21.3702 21.1044 21.3273 21.1838 21.2508C21.2631 21.1744 21.3077 21.0708 21.3077 20.9627V10.4015C21.3077 10.2539 21.2744 10.1081 21.2101 9.97416C21.1458 9.84021 21.0521 9.72131 20.9354 9.62568L12.6854 2.87252V2.8717ZM10.2188 1.63059C10.7161 1.22351 11.3474 1 12 1C12.6526 1 13.2839 1.22351 13.7812 1.63059L22.0312 8.38376C22.3348 8.63237 22.5787 8.94159 22.746 9.28998C22.9133 9.63838 23 10.0176 23 10.4015V20.9627C23 21.503 22.7771 22.0212 22.3804 22.4033C21.9837 22.7854 21.4457 23 20.8846 23H16.2308C15.6697 23 15.1317 22.7854 14.735 22.4033C14.3383 22.0212 14.1154 21.503 14.1154 20.9627V15.2583C14.1154 15.1503 14.0708 15.0466 13.9915 14.9702C13.9121 14.8938 13.8045 14.8509 13.6923 14.8509H9.88462C9.77241 14.8509 9.6648 14.8938 9.58545 14.9702C9.50611 15.0466 9.46154 15.1503 9.46154 15.2583V20.9627C9.46154 21.503 9.23867 22.0212 8.84196 22.4033C8.44525 22.7854 7.90719 23 7.34615 23H3.11538C2.55435 23 2.01629 22.7854 1.61958 22.4033C1.22287 22.0212 1 21.503 1 20.9627V10.4015C1.00002 10.0176 1.08668 9.63838 1.25397 9.28998C1.42126 8.94159 1.66518 8.63237 1.96885 8.38376L10.2188 1.63059V1.63059Z" fill="#9B9B9B"/>
</svg>
