<svg width="25" height="24" viewBox="0 0 25 24" fill="none" xmlns="http://www.w3.org/2000/svg">
<path d="M13.1854 2.8717C12.9941 2.71497 12.7511 2.6289 12.5 2.6289C12.2489 2.6289 12.0059 2.71497 11.8146 2.8717L3.56462 9.62568C3.44781 9.7214 3.354 9.84043 3.28972 9.97453C3.22543 10.1086 3.19219 10.2546 3.19231 10.4023V20.9627C3.19231 21.0708 3.23688 21.1744 3.31622 21.2508C3.39557 21.3273 3.50318 21.3702 3.61538 21.3702H7.84615C7.95836 21.3702 8.06597 21.3273 8.14531 21.2508C8.22466 21.1744 8.26923 21.0708 8.26923 20.9627V15.2583C8.26923 14.718 8.4921 14.1998 8.88881 13.8178C9.28552 13.4357 9.82358 13.2211 10.3846 13.2211H14.1923C14.4701 13.2211 14.7452 13.2738 15.0018 13.3761C15.2585 13.4785 15.4917 13.6286 15.6881 13.8178C15.8845 14.007 16.0404 14.2315 16.1467 14.4787C16.253 14.7259 16.3077 14.9908 16.3077 15.2583V20.9627C16.3077 21.0708 16.3523 21.1744 16.4316 21.2508C16.511 21.3273 16.6186 21.3702 16.7308 21.3702H21.3846C21.4968 21.3702 21.6044 21.3273 21.6838 21.2508C21.7631 21.1744 21.8077 21.0708 21.8077 20.9627V10.4015C21.8077 10.2539 21.7744 10.1081 21.7101 9.97416C21.6458 9.84021 21.5521 9.72131 21.4354 9.62568L13.1854 2.87252V2.8717ZM10.7188 1.63059C11.2161 1.22351 11.8474 1 12.5 1C13.1526 1 13.7839 1.22351 14.2812 1.63059L22.5312 8.38376C22.8348 8.63237 23.0787 8.94159 23.246 9.28998C23.4133 9.63838 23.5 10.0176 23.5 10.4015V20.9627C23.5 21.503 23.2771 22.0212 22.8804 22.4033C22.4837 22.7854 21.9457 23 21.3846 23H16.7308C16.1697 23 15.6317 22.7854 15.235 22.4033C14.8383 22.0212 14.6154 21.503 14.6154 20.9627V15.2583C14.6154 15.1503 14.5708 15.0466 14.4915 14.9702C14.4121 14.8938 14.3045 14.8509 14.1923 14.8509H10.3846C10.2724 14.8509 10.1648 14.8938 10.0855 14.9702C10.0061 15.0466 9.96154 15.1503 9.96154 15.2583V20.9627C9.96154 21.503 9.73867 22.0212 9.34196 22.4033C8.94525 22.7854 8.40719 23 7.84615 23H3.61538C3.05435 23 2.51629 22.7854 2.11958 22.4033C1.72287 22.0212 1.5 21.503 1.5 20.9627V10.4015C1.50002 10.0176 1.58668 9.63838 1.75397 9.28998C1.92126 8.94159 2.16518 8.63237 2.46885 8.38376L10.7188 1.63059V1.63059Z" fill="#2FA0DF"/>
</svg>
