<svg width="16" height="16" viewBox="0 0 16 16" fill="none" xmlns="http://www.w3.org/2000/svg">
<path d="M10.6667 11.3334V9.33337H6V6.66671H10.6667V4.66671L14 8.00004L10.6667 11.3334ZM9.33333 1.33337C9.68696 1.33337 10.0261 1.47385 10.2761 1.7239C10.5262 1.97395 10.6667 2.31309 10.6667 2.66671V4.00004H9.33333V2.66671H3.33333V13.3334H9.33333V12H10.6667V13.3334C10.6667 13.687 10.5262 14.0261 10.2761 14.2762C10.0261 14.5262 9.68696 14.6667 9.33333 14.6667H3.33333C2.97971 14.6667 2.64057 14.5262 2.39052 14.2762C2.14048 14.0261 2 13.687 2 13.3334V2.66671C2 2.31309 2.14048 1.97395 2.39052 1.7239C2.64057 1.47385 2.97971 1.33337 3.33333 1.33337H9.33333Z" fill="#FF0000"/>
</svg>
