<svg width="16" height="16" viewBox="0 0 16 16" fill="none" xmlns="http://www.w3.org/2000/svg">
<g clip-path="url(#clip0_162_621)">
<path fill-rule="evenodd" clip-rule="evenodd" d="M10.6667 9.33337C11.5256 9.33342 12.3514 9.66507 12.9719 10.2591C13.5923 10.8532 13.9594 11.6639 13.9967 12.522L14 12.6667V13.3334C14.0001 13.6698 13.8731 13.9938 13.6443 14.2404C13.4156 14.4871 13.1021 14.6381 12.7667 14.6634L12.6667 14.6667H3.33333C2.99695 14.6668 2.67296 14.5398 2.4263 14.311C2.17965 14.0823 2.02856 13.7688 2.00333 13.4334L2 13.3334V12.6667C2.00005 11.8077 2.33169 10.9819 2.92577 10.3615C3.51985 9.74111 4.3305 9.37399 5.18867 9.33671L5.33333 9.33337H10.6667ZM10.6667 10.6667H5.33333C4.82319 10.6667 4.33232 10.8616 3.96116 11.2116C3.59 11.5615 3.3666 12.0401 3.33667 12.5494L3.33333 12.6667V13.3334H12.6667V12.6667C12.6667 12.1566 12.4718 11.6657 12.1218 11.2945C11.7718 10.9234 11.2933 10.7 10.784 10.67L10.6667 10.6667ZM8 1.33337C8.88406 1.33337 9.7319 1.68456 10.357 2.30968C10.9821 2.93481 11.3333 3.78265 11.3333 4.66671C11.3333 5.55076 10.9821 6.39861 10.357 7.02373C9.7319 7.64885 8.88406 8.00004 8 8.00004C7.11595 8.00004 6.2681 7.64885 5.64298 7.02373C5.01786 6.39861 4.66667 5.55076 4.66667 4.66671C4.66667 3.78265 5.01786 2.93481 5.64298 2.30968C6.2681 1.68456 7.11595 1.33337 8 1.33337ZM8 2.66671C7.73736 2.66671 7.47728 2.71844 7.23463 2.81895C6.99198 2.91946 6.7715 3.06678 6.58579 3.25249C6.40007 3.43821 6.25275 3.65869 6.15224 3.90134C6.05173 4.14399 6 4.40406 6 4.66671C6 4.92935 6.05173 5.18942 6.15224 5.43207C6.25275 5.67473 6.40007 5.8952 6.58579 6.08092C6.7715 6.26664 6.99198 6.41396 7.23463 6.51447C7.47728 6.61498 7.73736 6.66671 8 6.66671C8.53043 6.66671 9.03914 6.45599 9.41421 6.08092C9.78929 5.70585 10 5.19714 10 4.66671C10 4.13627 9.78929 3.62757 9.41421 3.25249C9.03914 2.87742 8.53043 2.66671 8 2.66671Z" fill="black"/>
</g>
<defs>
<clipPath id="clip0_162_621">
<rect width="16" height="16" fill="white"/>
</clipPath>
</defs>
</svg>
