<svg width="24" height="24" viewBox="0 0 24 24" fill="none" xmlns="http://www.w3.org/2000/svg">
<path d="M18.2625 14.7L18.2626 14.7C18.5039 14.6999 18.7428 14.7474 18.9657 14.8397C19.1886 14.932 19.3912 15.0673 19.5618 15.2379C19.7324 15.4085 19.8678 15.611 19.9601 15.8339C20.0525 16.0568 20.1 16.2957 20.1 16.537V16.95C20.1 18.8126 19.1486 20.2098 17.6341 21.1319C16.1264 22.0494 14.0613 22.5 11.8 22.5C9.53868 22.5 7.47361 22.0494 5.96592 21.1319C4.45142 20.2098 3.5 18.8126 3.5 16.95V16.5371C3.5 16.537 3.5 16.537 3.5 16.537C3.50015 16.0497 3.69379 15.5825 4.03834 15.238C4.38293 14.8935 4.85024 14.7 5.3375 14.7H18.2625ZM3.875 16.5367V16.537V16.95C3.875 18.6615 4.73881 19.9459 6.16096 20.8118L6.16102 20.8118C7.59038 21.6819 9.58105 22.125 11.8 22.125C14.0189 22.125 16.0096 21.6819 17.439 20.8118L17.439 20.8118C18.8612 19.9458 19.725 18.6609 19.725 16.95V16.537C19.725 15.7293 19.0703 15.075 18.2625 15.075H5.3375C4.94977 15.075 4.5779 15.229 4.30365 15.5031C4.0294 15.7772 3.87522 16.1489 3.875 16.5367ZM6.8 6.5C6.8 3.73849 9.03849 1.5 11.8 1.5C14.5615 1.5 16.8 3.73849 16.8 6.5C16.8 9.26151 14.5615 11.5 11.8 11.5C9.03849 11.5 6.8 9.26151 6.8 6.5ZM8.52963 3.22963C7.66228 4.09699 7.175 5.27337 7.175 6.5C7.175 7.72663 7.66228 8.90301 8.52963 9.77037C9.39699 10.6377 10.5734 11.125 11.8 11.125C13.0266 11.125 14.203 10.6377 15.0704 9.77037C15.9377 8.90301 16.425 7.72663 16.425 6.5C16.425 5.27337 15.9377 4.09699 15.0704 3.22963C14.203 2.36228 13.0266 1.875 11.8 1.875C10.5734 1.875 9.39699 2.36228 8.52963 3.22963Z" fill="#9B9B9B" stroke="#9B9B9B"/>
</svg>
