<svg width="16" height="16" viewBox="0 0 16 16" fill="none" xmlns="http://www.w3.org/2000/svg">
<path d="M11.3331 5.50003C11.5542 5.50003 11.7661 5.41223 11.9224 5.25595C12.0787 5.09967 12.1665 4.88771 12.1665 4.6667C12.1665 4.44569 12.0787 4.23372 11.9224 4.07744C11.7661 3.92116 11.5542 3.83337 11.3331 3.83337C11.1121 3.83337 10.9002 3.92116 10.7439 4.07744C10.5876 4.23372 10.4998 4.44569 10.4998 4.6667C10.4998 4.88771 10.5876 5.09967 10.7439 5.25595C10.9002 5.41223 11.1121 5.50003 11.3331 5.50003ZM5.96647 5.73337C5.96718 4.57547 6.42746 3.4652 7.24622 2.64645C8.06497 1.82769 9.17524 1.36741 10.3331 1.3667C12.7305 1.3667 14.6998 3.24603 14.6998 5.6667C14.7011 6.5899 14.4081 7.48947 13.8631 8.2347C13.603 8.02245 13.3172 7.84371 13.0125 7.7027C13.4587 7.11781 13.7 6.40234 13.6991 5.6667C13.6991 3.8207 12.2011 2.3667 10.3325 2.3667C9.43979 2.36741 8.58388 2.72233 7.95266 3.35355C7.32144 3.98477 6.96651 4.84069 6.96581 5.73337C6.96581 5.90803 6.98847 6.0927 7.02447 6.2967C7.05822 6.48374 7.0464 6.67616 6.99 6.85766C6.9336 7.03916 6.83428 7.20439 6.70047 7.33937L2.54314 11.496C2.46576 11.5734 2.40439 11.6653 2.36252 11.7664C2.32066 11.8675 2.29912 11.9759 2.29914 12.0854V13.5334C2.29914 13.6254 2.3738 13.7 2.4658 13.7H4.13247C4.17667 13.7 4.21907 13.6825 4.25032 13.6512C4.28158 13.62 4.29914 13.5776 4.29914 13.5334V12.5334C4.29914 12.0734 4.67247 11.7 5.13247 11.7H6.29914V10.5334C6.29914 10.1 6.63047 9.74337 7.05381 9.70337L7.7718 10.422C7.67342 10.5006 7.58833 10.5944 7.5198 10.7H7.2998V11.8667C7.2998 12.3267 6.92647 12.7 6.46647 12.7H5.2998V13.5334C5.2998 13.8428 5.17689 14.1395 4.9581 14.3583C4.7393 14.5771 4.44256 14.7 4.13314 14.7H2.46647C2.15705 14.7 1.86031 14.5771 1.64151 14.3583C1.42272 14.1395 1.2998 13.8428 1.2998 13.5334V12.0854C1.2998 11.5987 1.49247 11.1327 1.83647 10.7894L5.99314 6.63203C6.01341 6.61066 6.02824 6.58472 6.03636 6.55641C6.04449 6.52809 6.04567 6.49823 6.03981 6.46937C5.99406 6.22662 5.96952 5.98036 5.96647 5.73337ZM9.18647 7.52003C9.2356 7.47426 9.275 7.41906 9.30233 7.35772C9.32965 7.29639 9.34435 7.23018 9.34553 7.16305C9.34672 7.09591 9.33437 7.02923 9.30922 6.96697C9.28407 6.90471 9.24664 6.84815 9.19916 6.80067C9.15168 6.75319 9.09513 6.71576 9.03287 6.69062C8.97061 6.66547 8.90393 6.65312 8.83679 6.6543C8.76966 6.65549 8.70345 6.67018 8.64211 6.69751C8.58078 6.72484 8.52558 6.76424 8.4798 6.81337L7.14647 8.1467C7.05284 8.24045 7.00025 8.36753 7.00025 8.50003C7.00025 8.63253 7.05284 8.75961 7.14647 8.85336L8.4798 10.1867C8.52558 10.2358 8.58078 10.2752 8.64211 10.3026C8.70345 10.3299 8.76966 10.3446 8.83679 10.3458C8.90393 10.3469 8.97061 10.3346 9.03287 10.3094C9.09513 10.2843 9.15168 10.2469 9.19916 10.1994C9.24664 10.1519 9.28407 10.0954 9.30922 10.0331C9.33437 9.97084 9.34672 9.90415 9.34553 9.83702C9.34435 9.76988 9.32965 9.70367 9.30233 9.64234C9.275 9.58101 9.2356 9.52581 9.18647 9.48003L8.70647 9.00003H11.3331C11.7946 9.00003 12.2458 9.13688 12.6295 9.39327C13.0132 9.64966 13.3123 10.0141 13.4889 10.4404C13.6655 10.8668 13.7117 11.336 13.6216 11.7886C13.5316 12.2412 13.3094 12.657 12.9831 12.9833C12.6567 13.3096 12.241 13.5318 11.7883 13.6219C11.3357 13.7119 10.8666 13.6657 10.4402 13.4891C10.0138 13.3125 9.64943 13.0134 9.39304 12.6297C9.13665 12.246 8.9998 11.7949 8.9998 11.3334C8.9998 11.2008 8.94713 11.0736 8.85336 10.9798C8.75959 10.886 8.63241 10.8334 8.4998 10.8334C8.3672 10.8334 8.24002 10.886 8.14625 10.9798C8.05248 11.0736 7.9998 11.2008 7.9998 11.3334C7.9998 11.9926 8.1953 12.6371 8.56157 13.1853C8.92784 13.7334 9.44844 14.1607 10.0575 14.413C10.6666 14.6653 11.3368 14.7313 11.9834 14.6027C12.63 14.474 13.224 14.1566 13.6902 13.6904C14.1563 13.2242 14.4738 12.6303 14.6024 11.9837C14.731 11.3371 14.665 10.6668 14.4127 10.0578C14.1604 9.44867 13.7332 8.92807 13.185 8.5618C12.6369 8.19553 11.9924 8.00003 11.3331 8.00003H8.70647L9.18647 7.52003Z" fill="black"/>
</svg>
