<svg width="24" height="24" viewBox="0 0 24 24" fill="none" xmlns="http://www.w3.org/2000/svg">
<path d="M19.9444 23H3.05556C2.7756 23 2.50712 22.8894 2.30917 22.6925C2.11121 22.4955 2 22.2285 2 21.95V3.05C2 2.77152 2.11121 2.50445 2.30917 2.30754C2.50712 2.11062 2.7756 2 3.05556 2H19.9444C20.2244 2 20.4929 2.11062 20.6908 2.30754C20.8888 2.50445 21 2.77152 21 3.05V21.95C21 22.2285 20.8888 22.4955 20.6908 22.6925C20.4929 22.8894 20.2244 23 19.9444 23ZM18.8889 20.9V4.1H4.11111V20.9H18.8889ZM6.22222 6.2H10.4444V10.4H6.22222V6.2ZM6.22222 12.5H16.7778V14.6H6.22222V12.5ZM6.22222 16.7H16.7778V18.8H6.22222V16.7ZM12.5556 7.25H16.7778V9.35H12.5556V7.25Z" fill="#2FA0DF"/>
</svg>
